<?xml version="1.0" encoding="UTF-8"?>
<svg xmlns="http://www.w3.org/2000/svg" xmlns:xlink="http://www.w3.org/1999/xlink" width="246" height="87" viewBox="0 0 246 87">
<defs>
<g>
<g id="glyph-0-0">
<path d="M 7.265625 -5.0625 L 5.859375 -1.171875 L 5.84375 -1.1875 L 4.59375 -4.96875 C 4.453125 -5.453125 4.765625 -5.484375 5.0625 -5.5 C 5.125 -5.5625 5.125 -5.75 5.0625 -5.796875 C 4.703125 -5.796875 4.3125 -5.78125 3.953125 -5.78125 C 3.65625 -5.78125 3.34375 -5.796875 3.046875 -5.796875 C 3 -5.75 3 -5.5625 3.046875 -5.5 C 3.53125 -5.484375 3.71875 -5.203125 3.796875 -4.96875 L 4.015625 -4.375 C 4.046875 -4.265625 4.078125 -4.171875 4.078125 -4.09375 C 4.078125 -4.015625 4.0625 -3.9375 3.984375 -3.78125 L 2.828125 -1.15625 L 2.796875 -1.171875 L 1.484375 -5.125 C 1.375 -5.4375 1.609375 -5.484375 1.921875 -5.5 C 1.984375 -5.5625 1.984375 -5.75 1.921875 -5.796875 C 1.625 -5.796875 1.234375 -5.78125 0.890625 -5.78125 C 0.578125 -5.78125 0.3125 -5.796875 0.046875 -5.796875 C 0 -5.75 0 -5.5625 0.046875 -5.5 C 0.453125 -5.484375 0.515625 -5.46875 0.6875 -4.984375 L 2.375 -0.140625 C 2.421875 0.015625 2.46875 0.109375 2.578125 0.109375 C 2.6875 0.109375 2.75 0.015625 2.8125 -0.140625 L 4.140625 -3.140625 C 4.21875 -3.3125 4.25 -3.359375 4.296875 -3.359375 C 4.328125 -3.359375 4.375 -3.265625 4.421875 -3.109375 L 5.453125 -0.140625 C 5.5 0.015625 5.546875 0.109375 5.65625 0.109375 C 5.765625 0.109375 5.828125 0.015625 5.859375 -0.125 L 7.671875 -4.953125 C 7.78125 -5.28125 7.953125 -5.484375 8.4375 -5.5 C 8.5 -5.5625 8.5 -5.75 8.4375 -5.796875 C 8.171875 -5.796875 7.890625 -5.78125 7.65625 -5.78125 C 7.421875 -5.78125 7.03125 -5.796875 6.671875 -5.796875 C 6.625 -5.75 6.625 -5.5625 6.671875 -5.5 C 7.046875 -5.484375 7.40625 -5.453125 7.265625 -5.0625 Z M 7.265625 -5.0625 "/>
</g>
<g id="glyph-0-1">
<path d="M 0.375 -1.84375 C 0.375 -0.921875 0.984375 0.09375 2.25 0.09375 C 2.828125 0.09375 3.265625 -0.109375 3.5625 -0.40625 C 3.96875 -0.8125 4.15625 -1.375 4.15625 -1.921875 C 4.15625 -2.859375 3.640625 -3.9375 2.265625 -3.9375 C 1.671875 -3.9375 1.1875 -3.6875 0.859375 -3.3125 C 0.53125 -2.921875 0.375 -2.40625 0.375 -1.84375 Z M 2.140625 -3.625 C 2.90625 -3.625 3.375 -2.921875 3.375 -1.625 C 3.375 -0.5 2.796875 -0.21875 2.375 -0.21875 C 1.4375 -0.21875 1.140625 -1.359375 1.140625 -2.046875 C 1.140625 -2.828125 1.328125 -3.625 2.140625 -3.625 Z M 2.140625 -3.625 "/>
</g>
<g id="glyph-0-2">
<path d="M 1.578125 -3.203125 C 1.5625 -3.5625 1.546875 -3.796875 1.5 -3.890625 C 1.484375 -3.9375 1.46875 -3.96875 1.40625 -3.96875 C 1.140625 -3.859375 0.921875 -3.78125 0.296875 -3.703125 C 0.28125 -3.65625 0.296875 -3.5 0.3125 -3.453125 C 0.796875 -3.40625 0.890625 -3.359375 0.890625 -2.84375 L 0.890625 -1.09375 C 0.890625 -0.34375 0.796875 -0.3125 0.234375 -0.28125 C 0.171875 -0.21875 0.171875 -0.03125 0.234375 0.015625 C 0.546875 0.015625 0.890625 0 1.25 0 C 1.609375 0 2.03125 0.015625 2.34375 0.015625 C 2.390625 -0.03125 2.390625 -0.21875 2.34375 -0.28125 C 1.71875 -0.328125 1.609375 -0.34375 1.609375 -1.09375 L 1.609375 -2.34375 C 1.609375 -2.578125 1.71875 -2.78125 1.828125 -2.9375 C 1.921875 -3.078125 2.125 -3.375 2.234375 -3.375 C 2.3125 -3.375 2.390625 -3.359375 2.46875 -3.265625 C 2.53125 -3.171875 2.640625 -3.0625 2.796875 -3.0625 C 3 -3.0625 3.203125 -3.28125 3.203125 -3.5 C 3.203125 -3.671875 3.046875 -3.9375 2.671875 -3.9375 C 2.25 -3.9375 1.890625 -3.546875 1.671875 -3.1875 C 1.625 -3.09375 1.578125 -3.171875 1.578125 -3.203125 Z M 1.578125 -3.203125 "/>
</g>
<g id="glyph-0-3">
<path d="M 0.765625 -1.09375 C 0.765625 -0.34375 0.671875 -0.3125 0.171875 -0.28125 C 0.109375 -0.21875 0.109375 -0.03125 0.171875 0.015625 C 0.46875 0.015625 0.765625 0 1.125 0 C 1.4375 0 1.734375 0.015625 1.953125 0.015625 C 2 -0.03125 2 -0.21875 1.953125 -0.28125 C 1.578125 -0.3125 1.484375 -0.34375 1.484375 -1.09375 L 1.484375 -1.875 C 1.65625 -1.859375 1.78125 -1.859375 1.859375 -1.828125 C 1.96875 -1.765625 2.046875 -1.671875 2.15625 -1.53125 L 2.8125 -0.65625 C 3.0625 -0.3125 3.171875 -0.140625 3.1875 -0.03125 C 3.1875 0 3.1875 0.015625 3.21875 0.015625 C 3.40625 0.015625 3.59375 0 3.78125 0 C 4.046875 0 4.328125 0.015625 4.515625 0.015625 C 4.5625 -0.03125 4.5625 -0.21875 4.515625 -0.28125 C 4.203125 -0.3125 3.984375 -0.34375 3.734375 -0.65625 L 2.5625 -2.140625 C 2.515625 -2.1875 2.5 -2.21875 2.5 -2.265625 C 2.5 -2.3125 2.5 -2.328125 2.53125 -2.359375 L 3.3125 -3.171875 C 3.59375 -3.46875 3.90625 -3.53125 4.265625 -3.5625 C 4.3125 -3.625 4.3125 -3.8125 4.265625 -3.859375 C 4.046875 -3.859375 3.796875 -3.84375 3.484375 -3.84375 C 3.140625 -3.84375 2.8125 -3.859375 2.59375 -3.859375 C 2.546875 -3.8125 2.546875 -3.625 2.59375 -3.5625 C 3.109375 -3.53125 2.890625 -3.21875 2.8125 -3.109375 C 2.59375 -2.859375 2.328125 -2.546875 2.09375 -2.375 C 1.890625 -2.234375 1.65625 -2.125 1.484375 -2.09375 L 1.484375 -5.234375 C 1.484375 -5.8125 1.515625 -6.171875 1.515625 -6.171875 C 1.515625 -6.234375 1.484375 -6.265625 1.40625 -6.265625 C 1.171875 -6.171875 0.5 -6.046875 0.140625 -6.015625 C 0.125 -5.953125 0.140625 -5.796875 0.203125 -5.75 C 0.65625 -5.71875 0.765625 -5.765625 0.765625 -5.015625 Z M 0.765625 -1.09375 "/>
</g>
<g id="glyph-0-4">
<path d="M 0.859375 -1.09375 C 0.859375 -0.34375 0.75 -0.3125 0.203125 -0.28125 C 0.15625 -0.21875 0.15625 -0.03125 0.203125 0.015625 C 0.515625 0.015625 0.859375 0 1.203125 0 C 1.5625 0 1.90625 0.015625 2.203125 0.015625 C 2.265625 -0.03125 2.265625 -0.21875 2.203125 -0.28125 C 1.65625 -0.3125 1.5625 -0.34375 1.5625 -1.09375 L 1.5625 -5.234375 C 1.5625 -5.8125 1.59375 -6.171875 1.59375 -6.171875 C 1.59375 -6.234375 1.5625 -6.265625 1.484375 -6.265625 C 1.25 -6.171875 0.578125 -6.046875 0.21875 -6.015625 C 0.203125 -5.953125 0.21875 -5.796875 0.28125 -5.75 C 0.796875 -5.71875 0.859375 -5.6875 0.859375 -5.015625 Z M 0.859375 -1.09375 "/>
</g>
<g id="glyph-0-5">
<path d="M 2.625 -2.09375 L 2.625 -0.90625 C 2.625 -0.796875 2.578125 -0.71875 2.5 -0.671875 C 2.265625 -0.484375 1.96875 -0.28125 1.71875 -0.28125 C 1.265625 -0.28125 1.0625 -0.640625 1.0625 -0.921875 C 1.0625 -1.3125 1.25 -1.734375 1.921875 -1.90625 Z M 2.625 -0.4375 C 2.6875 -0.15625 2.78125 0.09375 3.234375 0.09375 C 3.5625 0.09375 3.890625 -0.0625 4.078125 -0.234375 C 4.0625 -0.34375 4.03125 -0.4375 3.921875 -0.484375 C 3.859375 -0.4375 3.71875 -0.34375 3.59375 -0.34375 C 3.34375 -0.34375 3.328125 -0.6875 3.328125 -1.109375 L 3.328125 -2.421875 C 3.328125 -3.6875 2.625 -3.9375 1.96875 -3.9375 C 1.234375 -3.9375 0.5 -3.453125 0.5 -2.9375 C 0.5 -2.71875 0.59375 -2.625 0.8125 -2.625 C 1.0625 -2.625 1.234375 -2.8125 1.234375 -2.921875 C 1.234375 -2.984375 1.21875 -3.046875 1.203125 -3.078125 C 1.1875 -3.109375 1.1875 -3.171875 1.1875 -3.265625 C 1.1875 -3.546875 1.5625 -3.640625 1.90625 -3.640625 C 2.203125 -3.640625 2.625 -3.484375 2.625 -2.46875 C 2.625 -2.40625 2.59375 -2.375 2.578125 -2.375 L 1.796875 -2.171875 C 0.9375 -1.96875 0.328125 -1.484375 0.328125 -0.875 C 0.328125 -0.140625 0.828125 0.09375 1.453125 0.09375 C 1.765625 0.09375 2.03125 0.015625 2.4375 -0.28125 L 2.609375 -0.4375 Z M 2.625 -0.4375 "/>
</g>
<g id="glyph-0-6">
<path d="M 3.09375 -1.109375 C 3.09375 -0.9375 3.078125 -0.875 2.953125 -0.765625 C 2.625 -0.46875 2.328125 -0.328125 2.109375 -0.328125 C 1.625 -0.328125 1.125 -0.859375 1.125 -1.984375 C 1.125 -2.625 1.25 -2.984375 1.375 -3.171875 C 1.65625 -3.59375 2.03125 -3.625 2.21875 -3.625 C 2.53125 -3.625 2.765625 -3.5 2.9375 -3.296875 C 3.0625 -3.15625 3.09375 -3.09375 3.09375 -2.8125 Z M 3 -0.453125 C 3.046875 -0.484375 3.125 -0.5 3.125 -0.4375 C 3.15625 -0.21875 3.234375 0.09375 3.234375 0.09375 C 3.296875 0.109375 3.34375 0.109375 3.40625 0.09375 C 3.59375 -0.078125 3.90625 -0.203125 4.453125 -0.265625 C 4.515625 -0.328125 4.515625 -0.453125 4.453125 -0.515625 C 3.890625 -0.5625 3.796875 -0.71875 3.796875 -1.171875 L 3.796875 -5.234375 C 3.796875 -5.8125 3.84375 -6.171875 3.84375 -6.171875 C 3.84375 -6.234375 3.796875 -6.265625 3.71875 -6.265625 C 3.5 -6.171875 2.828125 -6.046875 2.46875 -6.015625 C 2.453125 -5.953125 2.46875 -5.796875 2.515625 -5.75 C 2.984375 -5.71875 3.09375 -5.765625 3.09375 -5.015625 L 3.09375 -3.859375 C 3.09375 -3.796875 3.078125 -3.78125 3.015625 -3.78125 C 2.984375 -3.78125 2.609375 -3.9375 2.3125 -3.9375 C 1.71875 -3.9375 1.328125 -3.734375 0.96875 -3.40625 C 0.578125 -3.015625 0.34375 -2.484375 0.34375 -1.828125 C 0.34375 -0.71875 0.90625 0.09375 1.875 0.09375 C 2.21875 0.09375 2.5625 -0.09375 3 -0.453125 Z M 3 -0.453125 "/>
</g>
<g id="glyph-0-7">
<path d="M 1.71875 -4.9375 C 1.71875 -5.40625 1.71875 -5.5 2.5 -5.5 C 3 -5.5 3.65625 -5.234375 3.65625 -4.3125 C 3.65625 -3.546875 3.125 -3.28125 2.375 -3.28125 L 1.71875 -3.28125 Z M 1.71875 -2.984375 L 2.328125 -2.984375 C 3.5625 -2.984375 4.078125 -2.28125 4.078125 -1.484375 C 4.078125 -0.828125 3.828125 -0.28125 2.453125 -0.28125 C 1.828125 -0.28125 1.71875 -0.515625 1.71875 -1.0625 Z M 0.171875 -5.796875 C 0.109375 -5.75 0.109375 -5.5625 0.171875 -5.5 C 0.796875 -5.484375 0.953125 -5.4375 0.953125 -4.6875 L 0.953125 -1.09375 C 0.953125 -0.34375 0.796875 -0.3125 0.171875 -0.28125 C 0.109375 -0.21875 0.109375 -0.03125 0.171875 0.015625 C 0.515625 0.015625 1 0 1.34375 0 C 1.65625 0 1.890625 0.015625 2.640625 0.015625 C 4.4375 0.015625 4.90625 -0.875 4.90625 -1.65625 C 4.90625 -2.515625 4.3125 -3 3.53125 -3.234375 L 3.53125 -3.25 C 3.96875 -3.46875 4.375 -3.9375 4.375 -4.421875 C 4.375 -5.015625 4.109375 -5.796875 2.453125 -5.796875 C 2.140625 -5.796875 1.65625 -5.78125 1.328125 -5.78125 C 1 -5.78125 0.515625 -5.796875 0.171875 -5.796875 Z M 0.171875 -5.796875 "/>
</g>
<g id="glyph-0-8">
<path d="M 0.4375 -1.234375 C 0.46875 -0.796875 0.5 -0.375 0.5 0 C 0.578125 -0.015625 0.671875 -0.03125 0.71875 -0.03125 C 0.78125 -0.03125 0.828125 -0.03125 0.890625 -0.015625 C 1.140625 0.046875 1.375 0.09375 1.71875 0.09375 C 2.21875 0.09375 3.140625 -0.15625 3.140625 -1.046875 C 3.140625 -1.65625 2.703125 -2.015625 2.09375 -2.234375 C 1.546875 -2.4375 1.1875 -2.578125 1.1875 -3.0625 C 1.1875 -3.4375 1.515625 -3.640625 1.828125 -3.640625 C 2.015625 -3.640625 2.53125 -3.5625 2.65625 -2.8125 C 2.703125 -2.75 2.890625 -2.765625 2.9375 -2.8125 C 2.96875 -3.140625 2.984375 -3.46875 3 -3.765625 C 2.71875 -3.8125 2.28125 -3.9375 1.828125 -3.9375 C 1.15625 -3.9375 0.5625 -3.5 0.5625 -2.9375 C 0.5625 -2.28125 0.859375 -2 1.546875 -1.71875 C 2.28125 -1.40625 2.453125 -1.21875 2.453125 -0.828125 C 2.453125 -0.390625 2.03125 -0.203125 1.6875 -0.203125 C 1.34375 -0.203125 1.140625 -0.328125 1.0625 -0.421875 C 0.859375 -0.625 0.765625 -1.015625 0.703125 -1.25 C 0.65625 -1.296875 0.484375 -1.296875 0.4375 -1.234375 Z M 0.4375 -1.234375 "/>
</g>
<g id="glyph-0-9">
<path d="M 1.109375 -2.53125 C 1.28125 -3.546875 1.90625 -3.625 2.125 -3.625 C 2.46875 -3.625 2.875 -3.4375 2.875 -2.6875 C 2.875 -2.59375 2.828125 -2.5625 2.734375 -2.5625 Z M 3.46875 -0.828125 C 3.125 -0.5 2.875 -0.34375 2.34375 -0.34375 C 2.03125 -0.34375 1.65625 -0.53125 1.375 -1 C 1.1875 -1.296875 1.078125 -1.703125 1.078125 -2.21875 L 3.46875 -2.203125 C 3.578125 -2.203125 3.640625 -2.265625 3.640625 -2.359375 C 3.640625 -3.109375 3.375 -3.921875 2.125 -3.921875 C 1.34375 -3.921875 0.328125 -3.171875 0.328125 -1.8125 C 0.328125 -1.3125 0.453125 -0.828125 0.75 -0.484375 C 1.0625 -0.125 1.484375 0.09375 2.125 0.09375 C 2.8125 0.09375 3.296875 -0.21875 3.65625 -0.6875 C 3.625 -0.78125 3.5625 -0.828125 3.46875 -0.828125 Z M 3.46875 -0.828125 "/>
</g>
<g id="glyph-0-10">
<path d="M 0.390625 -2.265625 C 0.390625 -1.859375 0.4375 0.21875 2.296875 1.828125 C 2.390625 1.8125 2.453125 1.75 2.484375 1.671875 C 2.1875 1.34375 1.140625 0.09375 1.140625 -2.265625 C 1.140625 -4.625 2.203125 -5.859375 2.484375 -6.171875 C 2.453125 -6.265625 2.390625 -6.328125 2.296875 -6.34375 C 1.234375 -5.421875 0.390625 -3.921875 0.390625 -2.265625 Z M 0.390625 -2.265625 "/>
</g>
<g id="glyph-0-11">
<path d="M 3.375 -5.90625 C 1.890625 -5.90625 0.328125 -4.734375 0.328125 -2.75 C 0.328125 -1.140625 1.4375 0.09375 3.15625 0.09375 C 4.21875 0.09375 5.046875 -0.140625 5.65625 -0.65625 C 5.5625 -0.734375 5.515625 -0.8125 5.515625 -0.90625 L 5.515625 -1.953125 C 5.515625 -2.265625 5.671875 -2.34375 5.921875 -2.375 C 5.984375 -2.4375 5.984375 -2.640625 5.921875 -2.703125 C 5.71875 -2.6875 5.484375 -2.6875 5.125 -2.6875 C 4.828125 -2.6875 4.40625 -2.6875 4.015625 -2.703125 C 3.96875 -2.640625 3.96875 -2.4375 4.015625 -2.375 C 4.515625 -2.34375 4.75 -2.3125 4.75 -1.953125 L 4.75 -0.578125 C 4.453125 -0.28125 3.84375 -0.234375 3.359375 -0.234375 C 1.953125 -0.234375 1.1875 -1.75 1.1875 -2.9375 C 1.1875 -4.5 2.21875 -5.578125 3.25 -5.578125 C 4.5625 -5.578125 4.921875 -4.828125 5.15625 -4.0625 C 5.25 -4.046875 5.359375 -4.078125 5.453125 -4.109375 C 5.4375 -4.5 5.390625 -4.859375 5.25 -5.5 C 4.703125 -5.59375 4.375 -5.90625 3.375 -5.90625 Z M 3.375 -5.90625 "/>
</g>
<g id="glyph-0-12">
<path d="M 2.625 -5.796875 L 2.265625 -5.796875 L 0.140625 0.53125 L 0.5 0.53125 Z M 2.625 -5.796875 "/>
</g>
<g id="glyph-0-13">
<path d="M 2.28125 -2.265625 C 2.28125 -2.65625 2.25 -4.734375 0.375 -6.34375 C 0.28125 -6.328125 0.21875 -6.265625 0.1875 -6.203125 C 0.484375 -5.859375 1.53125 -4.625 1.53125 -2.265625 C 1.53125 0.09375 0.46875 1.34375 0.1875 1.65625 C 0.21875 1.75 0.28125 1.8125 0.375 1.828125 C 1.4375 0.90625 2.28125 -0.59375 2.28125 -2.265625 Z M 2.28125 -2.265625 "/>
</g>
<g id="glyph-0-14">
<path d="M 2.96875 -5.578125 C 4.15625 -5.578125 5.109375 -4.59375 5.109375 -2.78125 C 5.109375 -1.171875 4.34375 -0.234375 3.3125 -0.234375 C 2.21875 -0.234375 1.1875 -1.203125 1.1875 -2.9375 C 1.1875 -4.8125 2.078125 -5.578125 2.96875 -5.578125 Z M 5.96875 -2.953125 C 5.96875 -4.8125 4.6875 -5.90625 3.078125 -5.90625 C 1.34375 -5.90625 0.328125 -4.515625 0.328125 -2.78125 C 0.328125 -1.015625 1.609375 0.09375 3.140625 0.09375 C 4.140625 0.09375 4.921875 -0.34375 5.421875 -1.046875 C 5.78125 -1.546875 5.96875 -2.203125 5.96875 -2.953125 Z M 5.96875 -2.953125 "/>
</g>
<g id="glyph-0-15">
<path d="M 2.921875 -3.5625 C 3.40625 -3.53125 3.453125 -3.421875 3.265625 -2.96875 L 2.53125 -1.203125 C 2.390625 -0.859375 2.34375 -0.859375 2.203125 -1.234375 L 1.5625 -2.96875 C 1.40625 -3.40625 1.359375 -3.5 1.84375 -3.5625 C 1.890625 -3.625 1.890625 -3.8125 1.84375 -3.859375 C 1.546875 -3.859375 1.234375 -3.84375 0.9375 -3.84375 C 0.640625 -3.84375 0.375 -3.859375 0.09375 -3.859375 C 0.046875 -3.8125 0.046875 -3.625 0.09375 -3.5625 C 0.578125 -3.515625 0.640625 -3.375 0.8125 -2.921875 L 1.96875 -0.078125 C 2.015625 0.046875 2.078125 0.109375 2.1875 0.109375 C 2.28125 0.109375 2.34375 0.046875 2.40625 -0.09375 L 3.59375 -2.90625 C 3.765625 -3.296875 3.859375 -3.53125 4.375 -3.5625 C 4.421875 -3.625 4.421875 -3.8125 4.375 -3.859375 C 4.1875 -3.859375 3.96875 -3.84375 3.734375 -3.84375 C 3.4375 -3.84375 3.140625 -3.859375 2.921875 -3.859375 C 2.859375 -3.8125 2.859375 -3.625 2.921875 -3.5625 Z M 2.921875 -3.5625 "/>
</g>
<g id="glyph-0-16">
<path d="M 1.828125 1.4375 C 1.96875 1.1875 2.09375 0.9375 2.203125 0.65625 C 2.921875 -1.0625 3.3125 -1.984375 3.78125 -3 C 3.96875 -3.375 4.09375 -3.515625 4.515625 -3.5625 C 4.5625 -3.625 4.5625 -3.8125 4.515625 -3.859375 C 4.328125 -3.859375 4.125 -3.84375 3.875 -3.84375 C 3.609375 -3.84375 3.328125 -3.859375 3.0625 -3.859375 C 3 -3.8125 3 -3.625 3.0625 -3.5625 C 3.34375 -3.546875 3.625 -3.484375 3.484375 -3.171875 L 2.59375 -1.109375 C 2.53125 -0.96875 2.453125 -0.9375 2.390625 -1.125 L 1.59375 -2.984375 C 1.421875 -3.359375 1.375 -3.53125 1.890625 -3.5625 C 1.9375 -3.625 1.9375 -3.8125 1.890625 -3.859375 C 1.546875 -3.859375 1.1875 -3.84375 0.875 -3.84375 C 0.5625 -3.84375 0.328125 -3.859375 0.140625 -3.859375 C 0.09375 -3.8125 0.09375 -3.625 0.140625 -3.5625 C 0.5 -3.53125 0.625 -3.4375 0.859375 -2.890625 L 1.859375 -0.53125 C 1.953125 -0.359375 2.078125 0.046875 1.984375 0.3125 C 1.890625 0.59375 1.78125 0.859375 1.640625 1.125 C 1.546875 1.3125 1.421875 1.390625 1.1875 1.390625 C 1.0625 1.390625 1.03125 1.359375 0.9375 1.359375 C 0.671875 1.359375 0.53125 1.625 0.53125 1.75 C 0.53125 1.9375 0.71875 2.078125 0.953125 2.078125 C 1.140625 2.078125 1.5 2.015625 1.828125 1.4375 Z M 1.828125 1.4375 "/>
</g>
<g id="glyph-0-17">
<path d="M 2.53125 -2.890625 C 3.296875 -2.890625 3.328125 -2.6875 3.359375 -2.28125 C 3.40625 -2.234375 3.59375 -2.234375 3.65625 -2.28125 C 3.640625 -2.515625 3.625 -2.765625 3.625 -3.078125 C 3.625 -3.375 3.640625 -3.609375 3.65625 -3.84375 C 3.59375 -3.90625 3.40625 -3.90625 3.359375 -3.84375 C 3.328125 -3.359375 3.296875 -3.234375 2.53125 -3.234375 L 1.703125 -3.234375 L 1.703125 -4.859375 C 1.703125 -5.34375 1.8125 -5.421875 2.203125 -5.421875 L 2.609375 -5.421875 C 3.5625 -5.421875 3.78125 -5.0625 3.984375 -4.453125 C 4.09375 -4.453125 4.1875 -4.46875 4.265625 -4.5 C 4.21875 -4.859375 4.078125 -5.71875 4.0625 -5.796875 C 4.0625 -5.8125 4.046875 -5.828125 4.03125 -5.828125 C 3.875 -5.796875 3.828125 -5.78125 3.609375 -5.78125 L 1.3125 -5.78125 C 1.03125 -5.78125 0.515625 -5.796875 0.15625 -5.796875 C 0.109375 -5.75 0.109375 -5.5625 0.15625 -5.5 C 0.796875 -5.484375 0.9375 -5.4375 0.9375 -4.6875 L 0.9375 -1.09375 C 0.9375 -0.34375 0.796875 -0.3125 0.15625 -0.28125 C 0.109375 -0.21875 0.109375 -0.03125 0.15625 0.015625 C 0.46875 0.015625 0.921875 0 1.328125 0 C 1.734375 0 2.171875 0.015625 2.484375 0.015625 C 2.53125 -0.03125 2.53125 -0.21875 2.484375 -0.28125 C 1.859375 -0.3125 1.703125 -0.34375 1.703125 -1.09375 L 1.703125 -2.890625 Z M 2.53125 -2.890625 "/>
</g>
<g id="glyph-0-18">
<path d="M 3.546875 -5.65625 C 3.015625 -5.734375 3.046875 -5.90625 2.15625 -5.90625 C 1.25 -5.90625 0.453125 -5.296875 0.453125 -4.34375 C 0.453125 -3.40625 1.234375 -2.984375 2.03125 -2.671875 C 2.5625 -2.46875 3.234375 -2.21875 3.234375 -1.34375 C 3.234375 -0.609375 2.828125 -0.234375 2.109375 -0.234375 C 1.28125 -0.234375 0.734375 -0.625 0.53125 -1.5 C 0.421875 -1.546875 0.328125 -1.53125 0.234375 -1.484375 C 0.28125 -0.796875 0.3125 -0.5625 0.421875 -0.109375 C 0.984375 -0.109375 1.234375 0.09375 2.03125 0.09375 C 2.4375 0.09375 2.828125 -0.015625 3.140625 -0.203125 C 3.65625 -0.53125 3.984375 -1.078125 3.984375 -1.65625 C 3.984375 -2.59375 3.265625 -3.015625 2.53125 -3.296875 C 1.984375 -3.5 1.09375 -3.84375 1.09375 -4.59375 C 1.09375 -5.09375 1.546875 -5.59375 2.078125 -5.59375 C 2.953125 -5.59375 3.234375 -5.046875 3.40625 -4.453125 C 3.5 -4.4375 3.625 -4.4375 3.703125 -4.5 C 3.671875 -4.9375 3.625 -5.1875 3.546875 -5.65625 Z M 3.546875 -5.65625 "/>
</g>
<g id="glyph-0-19">
<path d="M 1.65625 -3.203125 C 1.59375 -3.140625 1.546875 -3.125 1.546875 -3.203125 C 1.53125 -3.453125 1.515625 -3.796875 1.46875 -3.890625 C 1.453125 -3.9375 1.4375 -3.96875 1.359375 -3.96875 C 1.109375 -3.859375 0.875 -3.78125 0.265625 -3.703125 C 0.234375 -3.65625 0.265625 -3.5 0.28125 -3.453125 C 0.765625 -3.40625 0.859375 -3.359375 0.859375 -2.84375 L 0.859375 -1.09375 C 0.859375 -0.359375 0.765625 -0.328125 0.234375 -0.28125 C 0.171875 -0.21875 0.171875 -0.03125 0.234375 0.015625 C 0.5 0.015625 0.859375 0 1.21875 0 C 1.578125 0 1.84375 0.015625 2.109375 0.015625 C 2.171875 -0.03125 2.171875 -0.21875 2.109375 -0.28125 C 1.65625 -0.328125 1.5625 -0.359375 1.5625 -1.09375 L 1.5625 -2.5625 C 1.5625 -2.75 1.65625 -2.859375 1.71875 -2.9375 C 2.0625 -3.28125 2.46875 -3.46875 2.8125 -3.46875 C 3 -3.46875 3.1875 -3.359375 3.296875 -3.140625 C 3.375 -2.96875 3.40625 -2.71875 3.40625 -2.453125 L 3.40625 -1.09375 C 3.40625 -0.359375 3.3125 -0.328125 2.84375 -0.28125 C 2.796875 -0.21875 2.796875 -0.03125 2.84375 0.015625 C 3.109375 0.015625 3.40625 0 3.765625 0 C 4.109375 0 4.4375 0.015625 4.703125 0.015625 C 4.75 -0.03125 4.75 -0.21875 4.703125 -0.28125 C 4.203125 -0.328125 4.109375 -0.359375 4.109375 -1.09375 L 4.109375 -2.4375 C 4.109375 -2.921875 4.078125 -3.359375 3.859375 -3.625 C 3.71875 -3.828125 3.4375 -3.9375 3.125 -3.9375 C 2.6875 -3.9375 2.171875 -3.828125 1.65625 -3.203125 Z M 1.65625 -3.203125 "/>
</g>
<g id="glyph-0-20">
<path d="M 3.5625 -0.8125 C 3.53125 -0.890625 3.46875 -0.9375 3.375 -0.9375 C 3.078125 -0.546875 2.6875 -0.34375 2.3125 -0.34375 C 1.65625 -0.34375 1.109375 -1.015625 1.109375 -2.0625 C 1.109375 -3.046875 1.53125 -3.640625 2.125 -3.640625 C 2.65625 -3.640625 2.71875 -3.328125 2.765625 -3.015625 C 2.796875 -2.765625 2.921875 -2.6875 3.109375 -2.6875 C 3.296875 -2.6875 3.546875 -2.8125 3.546875 -3.078125 C 3.546875 -3.578125 3.03125 -3.9375 2.171875 -3.9375 C 1.28125 -3.9375 0.328125 -3.140625 0.328125 -1.859375 C 0.328125 -0.703125 0.984375 0.09375 2.109375 0.09375 C 2.640625 0.09375 3.125 -0.078125 3.5625 -0.8125 Z M 3.5625 -0.8125 "/>
</g>
<g id="glyph-0-21">
<path d="M 1.5 -2.5625 C 1.5 -2.75 1.578125 -2.859375 1.65625 -2.9375 C 1.984375 -3.28125 2.453125 -3.46875 2.796875 -3.46875 C 2.984375 -3.46875 3.171875 -3.359375 3.28125 -3.140625 C 3.359375 -2.96875 3.375 -2.71875 3.375 -2.453125 L 3.375 -1.09375 C 3.375 -0.359375 3.296875 -0.328125 2.828125 -0.28125 C 2.78125 -0.21875 2.78125 -0.03125 2.828125 0.015625 C 3.078125 0.015625 3.375 0 3.734375 0 C 4.09375 0 4.390625 0.015625 4.6875 0.015625 C 4.734375 -0.03125 4.734375 -0.21875 4.6875 -0.28125 C 4.1875 -0.328125 4.09375 -0.359375 4.09375 -1.09375 L 4.09375 -2.4375 C 4.09375 -2.921875 4.046875 -3.359375 3.84375 -3.625 C 3.6875 -3.828125 3.421875 -3.9375 3.109375 -3.9375 C 2.65625 -3.9375 2.125 -3.828125 1.578125 -3.203125 C 1.546875 -3.171875 1.484375 -3.078125 1.484375 -3.203125 L 1.5 -5.234375 C 1.5 -5.8125 1.53125 -6.171875 1.53125 -6.171875 C 1.53125 -6.234375 1.5 -6.265625 1.421875 -6.265625 C 1.1875 -6.171875 0.515625 -6.046875 0.15625 -6.015625 C 0.140625 -5.953125 0.15625 -5.796875 0.21875 -5.75 C 0.6875 -5.71875 0.796875 -5.765625 0.796875 -5.015625 L 0.796875 -1.09375 C 0.796875 -0.34375 0.6875 -0.3125 0.15625 -0.28125 C 0.109375 -0.21875 0.109375 -0.03125 0.15625 0.015625 C 0.453125 0.015625 0.796875 0 1.140625 0 C 1.484375 0 1.78125 0.015625 2.03125 0.015625 C 2.09375 -0.03125 2.09375 -0.21875 2.03125 -0.28125 C 1.578125 -0.3125 1.5 -0.34375 1.5 -1.09375 Z M 1.5 -2.5625 "/>
</g>
<g id="glyph-0-22">
<path d="M 2.890625 -3.296875 C 3.0625 -3.109375 3.109375 -2.96875 3.109375 -2.75 L 3.109375 -0.6875 C 3.109375 -0.53125 3.09375 -0.484375 2.984375 -0.421875 C 2.765625 -0.3125 2.53125 -0.3125 2.390625 -0.3125 C 1.859375 -0.3125 1.078125 -0.6875 1.078125 -2.03125 C 1.078125 -2.96875 1.46875 -3.625 2.171875 -3.625 C 2.453125 -3.625 2.6875 -3.53125 2.890625 -3.296875 Z M 3.109375 1 C 3.109375 1.734375 3 1.78125 2.453125 1.796875 C 2.40625 1.859375 2.40625 2.046875 2.453125 2.09375 C 2.765625 2.09375 3.109375 2.078125 3.46875 2.078125 C 3.828125 2.078125 4.15625 2.09375 4.453125 2.09375 C 4.515625 2.046875 4.515625 1.859375 4.453125 1.796875 C 3.90625 1.78125 3.8125 1.734375 3.8125 1 L 3.8125 -3.734375 C 3.8125 -3.859375 3.78125 -3.96875 3.671875 -3.96875 C 3.609375 -3.96875 3.5625 -3.890625 3.484375 -3.796875 C 3.375 -3.625 3.34375 -3.609375 3.234375 -3.671875 C 2.9375 -3.859375 2.59375 -3.9375 2.21875 -3.9375 C 1.125 -3.9375 0.3125 -3.046875 0.3125 -1.859375 C 0.3125 -1.015625 0.875 0.09375 2.171875 0.09375 C 2.40625 0.09375 2.703125 0.03125 2.859375 -0.046875 C 3.0625 -0.171875 3.109375 -0.1875 3.109375 0 Z M 3.109375 1 "/>
</g>
<g id="glyph-0-23">
<path d="M 1.828125 -3.5625 C 1.875 -3.625 1.875 -3.8125 1.828125 -3.859375 C 1.546875 -3.859375 1.234375 -3.84375 0.921875 -3.84375 C 0.578125 -3.84375 0.328125 -3.859375 0.09375 -3.859375 C 0.046875 -3.8125 0.046875 -3.625 0.09375 -3.5625 C 0.515625 -3.53125 0.625 -3.4375 0.8125 -2.96875 L 1.984375 -0.078125 C 2.03125 0.046875 2.109375 0.109375 2.203125 0.109375 C 2.28125 0.109375 2.34375 0.046875 2.40625 -0.09375 L 3.3125 -2.296875 L 4.25 -0.078125 C 4.296875 0.046875 4.375 0.109375 4.453125 0.109375 C 4.53125 0.109375 4.609375 0.046875 4.65625 -0.078125 L 5.84375 -2.921875 C 5.984375 -3.296875 6.140625 -3.546875 6.59375 -3.5625 C 6.640625 -3.625 6.640625 -3.8125 6.59375 -3.859375 C 6.40625 -3.859375 6.21875 -3.84375 5.953125 -3.84375 C 5.671875 -3.84375 5.296875 -3.859375 5.03125 -3.859375 C 4.984375 -3.8125 4.984375 -3.625 5.03125 -3.5625 C 5.703125 -3.53125 5.609375 -3.28125 5.484375 -2.953125 L 4.734375 -1.09375 C 4.640625 -0.875 4.609375 -0.875 4.53125 -1.0625 L 3.765625 -3.015625 C 3.59375 -3.4375 3.609375 -3.53125 4.09375 -3.5625 C 4.140625 -3.625 4.140625 -3.8125 4.09375 -3.859375 C 3.828125 -3.859375 3.46875 -3.84375 3.1875 -3.84375 C 2.96875 -3.84375 2.671875 -3.859375 2.40625 -3.859375 C 2.34375 -3.8125 2.34375 -3.625 2.40625 -3.5625 C 2.828125 -3.53125 2.9375 -3.28125 3.09375 -2.875 L 3.140625 -2.71875 L 2.515625 -1.140625 C 2.40625 -0.84375 2.390625 -0.828125 2.265625 -1.125 L 1.546875 -2.96875 C 1.375 -3.40625 1.390625 -3.546875 1.828125 -3.5625 Z M 1.828125 -3.5625 "/>
</g>
<g id="glyph-0-24">
<path d="M 1.53125 -3.203125 C 1.515625 -3.484375 1.5 -3.796875 1.453125 -3.890625 C 1.4375 -3.9375 1.421875 -3.96875 1.34375 -3.96875 C 1.09375 -3.859375 0.859375 -3.78125 0.234375 -3.703125 C 0.21875 -3.65625 0.234375 -3.5 0.265625 -3.453125 C 0.75 -3.40625 0.84375 -3.359375 0.84375 -2.84375 L 0.84375 -1.09375 C 0.84375 -0.359375 0.71875 -0.3125 0.234375 -0.28125 C 0.171875 -0.21875 0.171875 -0.03125 0.234375 0.015625 C 0.5 0.015625 0.84375 0 1.203125 0 C 1.5625 0 1.84375 0.015625 2.109375 0.015625 C 2.15625 -0.03125 2.15625 -0.21875 2.109375 -0.28125 C 1.65625 -0.328125 1.546875 -0.359375 1.546875 -1.09375 L 1.546875 -2.5625 C 1.546875 -2.75 1.625 -2.859375 1.703125 -2.9375 C 2.0625 -3.296875 2.390625 -3.46875 2.671875 -3.46875 C 3.015625 -3.46875 3.265625 -3.25 3.265625 -2.65625 L 3.265625 -1.09375 C 3.265625 -0.359375 3.1875 -0.3125 2.703125 -0.28125 C 2.65625 -0.21875 2.65625 -0.03125 2.703125 0.015625 C 2.9375 0.015625 3.265625 0 3.625 0 C 3.984375 0 4.28125 0.015625 4.5 0.015625 C 4.546875 -0.03125 4.546875 -0.21875 4.5 -0.28125 C 4.046875 -0.3125 3.96875 -0.359375 3.96875 -1.09375 L 3.96875 -2.515625 C 3.96875 -2.640625 3.96875 -2.765625 3.96875 -2.875 C 4.390625 -3.359375 4.796875 -3.46875 5.140625 -3.46875 C 5.484375 -3.46875 5.6875 -3.28125 5.6875 -2.671875 L 5.6875 -1.09375 C 5.6875 -0.359375 5.59375 -0.3125 5.125 -0.28125 C 5.078125 -0.21875 5.078125 -0.03125 5.125 0.015625 C 5.359375 0.015625 5.6875 0 6.046875 0 C 6.40625 0 6.71875 0.015625 6.96875 0.015625 C 7.015625 -0.03125 7.015625 -0.21875 6.96875 -0.28125 C 6.46875 -0.3125 6.390625 -0.359375 6.390625 -1.09375 L 6.390625 -2.515625 C 6.390625 -3.3125 6.265625 -3.9375 5.46875 -3.9375 C 5.015625 -3.9375 4.453125 -3.765625 3.984375 -3.28125 C 3.96875 -3.25 3.90625 -3.203125 3.890625 -3.28125 C 3.8125 -3.65625 3.46875 -3.9375 3 -3.9375 C 2.46875 -3.9375 2.015625 -3.625 1.625 -3.203125 C 1.59375 -3.171875 1.53125 -3.109375 1.53125 -3.203125 Z M 1.53125 -3.203125 "/>
</g>
<g id="glyph-0-25">
<path d="M 0.8125 -5.375 C 0.8125 -5.140625 1.015625 -4.90625 1.234375 -4.90625 C 1.484375 -4.90625 1.703125 -5.140625 1.703125 -5.34375 C 1.703125 -5.546875 1.515625 -5.796875 1.28125 -5.796875 C 1.0625 -5.796875 0.8125 -5.59375 0.8125 -5.375 Z M 1.625 -1.09375 L 1.625 -2.875 C 1.625 -3.328125 1.65625 -3.90625 1.65625 -3.90625 C 1.65625 -3.9375 1.609375 -3.96875 1.546875 -3.96875 C 1.296875 -3.859375 0.9375 -3.78125 0.3125 -3.703125 C 0.296875 -3.65625 0.3125 -3.5 0.328125 -3.453125 C 0.828125 -3.40625 0.921875 -3.359375 0.921875 -2.84375 L 0.921875 -1.09375 C 0.921875 -0.34375 0.8125 -0.328125 0.265625 -0.28125 C 0.21875 -0.21875 0.21875 -0.03125 0.265625 0.015625 C 0.5625 0.015625 0.921875 0 1.28125 0 C 1.625 0 1.96875 0.015625 2.265625 0.015625 C 2.328125 -0.03125 2.328125 -0.21875 2.265625 -0.28125 C 1.71875 -0.3125 1.625 -0.34375 1.625 -1.09375 Z M 1.625 -1.09375 "/>
</g>
<g id="glyph-0-26">
<path d="M 0.390625 -3.84375 C 0.265625 -3.84375 0.21875 -3.734375 0.21875 -3.671875 L 0.21875 -3.546875 C 0.21875 -3.5 0.234375 -3.5 0.265625 -3.5 L 0.796875 -3.5 L 0.796875 -0.796875 C 0.796875 -0.15625 1.078125 0.09375 1.484375 0.09375 C 1.90625 0.09375 2.34375 -0.109375 2.703125 -0.5 C 2.6875 -0.59375 2.625 -0.640625 2.53125 -0.65625 C 2.3125 -0.46875 2.03125 -0.40625 1.796875 -0.40625 C 1.5625 -0.40625 1.5 -0.671875 1.5 -1.234375 L 1.5 -3.5 L 2.4375 -3.5 C 2.53125 -3.5 2.65625 -3.53125 2.65625 -3.609375 L 2.65625 -3.796875 C 2.65625 -3.828125 2.625 -3.84375 2.578125 -3.84375 L 1.5 -3.84375 L 1.5 -4.203125 C 1.5 -4.78125 1.546875 -5.140625 1.546875 -5.140625 C 1.546875 -5.1875 1.515625 -5.21875 1.46875 -5.21875 C 1.4375 -5.21875 1.359375 -5.1875 1.28125 -5.140625 C 1.171875 -5.078125 1.078125 -5.046875 0.96875 -5.015625 C 0.859375 -4.984375 0.765625 -4.953125 0.765625 -4.890625 C 0.765625 -4.78125 0.796875 -4.84375 0.796875 -3.84375 Z M 0.390625 -3.84375 "/>
</g>
<g id="glyph-1-0">
<path d="M 2.984375 -2.5625 C 3.359375 -3.28125 3.96875 -4.15625 5.0625 -5.8125 C 4.9375 -5.796875 4.796875 -5.78125 4.6875 -5.78125 C 4.5625 -5.78125 4.40625 -5.796875 4.3125 -5.8125 C 3.859375 -4.875 3.25 -3.859375 2.734375 -3.046875 C 2.171875 -4.03125 1.65625 -4.875 1.171875 -5.8125 C 1.015625 -5.796875 0.8125 -5.78125 0.65625 -5.78125 C 0.5 -5.78125 0.296875 -5.796875 0.140625 -5.8125 C 0.5 -5.28125 1.875 -3.046875 2.21875 -2.46875 C 2.21875 -1.59375 2.203125 -0.46875 2.15625 0.03125 C 2.265625 0.015625 2.5 0 2.59375 0 C 2.703125 0 2.9375 0.015625 3.046875 0.03125 C 3.015625 -0.40625 3 -1.671875 2.984375 -2.5625 Z M 2.984375 -2.5625 "/>
</g>
<g id="glyph-1-1">
<path d="M 0.34375 -1.84375 C 0.34375 -0.765625 1.046875 0.09375 2.25 0.09375 C 3.421875 0.09375 4.140625 -0.75 4.140625 -1.921875 C 4.140625 -3.140625 3.484375 -3.9375 2.28125 -3.9375 C 1.109375 -3.9375 0.34375 -3.109375 0.34375 -1.84375 Z M 2.21875 -3.578125 C 3.171875 -3.578125 3.359375 -2.84375 3.359375 -1.765625 C 3.359375 -0.90625 2.921875 -0.265625 2.328125 -0.265625 C 1.375 -0.265625 1.125 -1.296875 1.125 -1.984375 C 1.125 -2.765625 1.375 -3.578125 2.21875 -3.578125 Z M 2.21875 -3.578125 "/>
</g>
<g id="glyph-1-2">
<path d="M 0.8125 -1.796875 C 0.8125 -1.125 0.796875 -0.46875 0.71875 0 L 0.75 0.03125 C 0.859375 0.015625 1.0625 0 1.171875 0 C 1.28125 0 1.484375 0.015625 1.59375 0.03125 L 1.609375 0 C 1.53125 -0.515625 1.53125 -1.109375 1.53125 -1.796875 L 1.53125 -4.484375 C 1.53125 -5.15625 1.5625 -5.59375 1.609375 -6.171875 C 1.609375 -6.234375 1.578125 -6.265625 1.53125 -6.265625 C 1.296875 -6.171875 1.109375 -6.109375 0.75 -6.078125 L 0.71875 -6.046875 C 0.796875 -5.671875 0.8125 -5 0.8125 -4.328125 Z M 0.8125 -1.796875 "/>
</g>
<g id="glyph-1-3">
<path d="M 3.65625 -5.78125 L 1.3125 -5.78125 C 1.015625 -5.78125 0.859375 -5.8125 0.859375 -5.8125 L 0.84375 -5.78125 C 0.921875 -5.28125 0.9375 -4.65625 0.9375 -3.984375 L 0.9375 -1.796875 C 0.9375 -1.125 0.921875 -0.484375 0.84375 0 L 0.859375 0.03125 C 0.859375 0.03125 1 0 1.3125 0 C 1.625 0 1.78125 0.03125 1.78125 0.03125 L 1.796875 0 C 1.71875 -0.515625 1.703125 -1.125 1.703125 -1.796875 L 1.703125 -2.84375 C 2.140625 -2.84375 3.078125 -2.8125 3.703125 -2.75 L 3.734375 -2.78125 C 3.71875 -2.859375 3.703125 -2.984375 3.703125 -3.0625 C 3.703125 -3.140625 3.71875 -3.28125 3.734375 -3.359375 L 3.703125 -3.375 C 3.171875 -3.34375 2.765625 -3.296875 1.703125 -3.296875 L 1.703125 -3.984375 C 1.703125 -4.140625 1.71875 -5.0625 1.78125 -5.28125 C 2.984375 -5.28125 4.21875 -5.171875 4.21875 -5.171875 L 4.234375 -5.203125 C 4.21875 -5.28125 4.21875 -5.40625 4.21875 -5.484375 C 4.21875 -5.546875 4.21875 -5.65625 4.234375 -5.78125 L 4.21875 -5.8125 C 4.078125 -5.796875 3.859375 -5.78125 3.65625 -5.78125 Z M 3.65625 -5.78125 "/>
</g>
<g id="glyph-1-4">
<path d="M 2.171875 -0.3125 C 1.671875 -0.3125 1.015625 -0.75 0.75 -1.28125 L 0.65625 -1.265625 C 0.625 -0.9375 0.515625 -0.609375 0.453125 -0.34375 L 0.46875 -0.3125 C 0.46875 -0.3125 1.046875 0.09375 2.09375 0.09375 C 3.203125 0.09375 4.046875 -0.578125 4.046875 -1.625 C 4.046875 -2.65625 3.171875 -3.140625 2.453125 -3.421875 C 1.984375 -3.59375 1.359375 -3.84375 1.359375 -4.59375 C 1.359375 -4.921875 1.53125 -5.28125 1.765625 -5.40625 C 1.921875 -5.484375 2.109375 -5.5 2.3125 -5.5 C 2.8125 -5.5 3.296875 -5.125 3.53125 -4.5625 L 3.625 -4.578125 C 3.65625 -4.890625 3.75 -5.203125 3.828125 -5.46875 L 3.8125 -5.5 C 3.8125 -5.5 3.4375 -5.90625 2.390625 -5.90625 C 2.140625 -5.90625 1.875 -5.859375 1.609375 -5.75 C 1.078125 -5.53125 0.625 -5 0.625 -4.34375 C 0.625 -3.40625 1.421875 -2.96875 2.171875 -2.65625 C 2.75 -2.40625 3.21875 -2.109375 3.21875 -1.359375 C 3.21875 -0.6875 2.703125 -0.3125 2.171875 -0.3125 Z M 2.171875 -0.3125 "/>
</g>
<g id="glyph-2-0">
<path d="M 4.25 -2.875 C 4.25 -3.46875 4.21875 -4.25 3.90625 -4.921875 C 3.5 -5.765625 2.828125 -5.96875 2.3125 -5.96875 C 1.765625 -5.96875 1.078125 -5.765625 0.6875 -4.890625 C 0.40625 -4.28125 0.359375 -3.546875 0.359375 -2.875 C 0.359375 -2.28125 0.375 -1.421875 0.765625 -0.703125 C 1.1875 0.046875 1.890625 0.203125 2.296875 0.203125 C 2.875 0.203125 3.546875 -0.046875 3.921875 -0.875 C 4.1875 -1.484375 4.25 -2.15625 4.25 -2.875 Z M 2.3125 -0.03125 C 2.03125 -0.03125 1.390625 -0.15625 1.21875 -1.171875 C 1.125 -1.6875 1.125 -2.46875 1.125 -2.984375 C 1.125 -3.59375 1.125 -4.296875 1.234375 -4.796875 C 1.421875 -5.59375 1.984375 -5.75 2.296875 -5.75 C 2.640625 -5.75 3.203125 -5.5625 3.375 -4.734375 C 3.46875 -4.25 3.46875 -3.546875 3.46875 -2.984375 C 3.46875 -2.421875 3.46875 -1.671875 3.375 -1.140625 C 3.1875 -0.109375 2.53125 -0.03125 2.3125 -0.03125 Z M 2.3125 -0.03125 "/>
</g>
<g id="glyph-2-1">
<path d="M 0.9375 -3.09375 C 0.9375 -2.9375 0.9375 -2.828125 1.0625 -2.828125 C 1.125 -2.828125 1.15625 -2.875 1.203125 -2.953125 C 1.484375 -3.328125 1.90625 -3.546875 2.375 -3.546875 C 3.34375 -3.546875 3.34375 -2.15625 3.34375 -1.84375 C 3.34375 -1.5625 3.34375 -1 3.078125 -0.59375 C 2.84375 -0.21875 2.46875 -0.046875 2.109375 -0.046875 C 1.59375 -0.046875 0.984375 -0.390625 0.765625 -1.046875 C 0.78125 -1.046875 0.828125 -1.03125 0.890625 -1.03125 C 1.078125 -1.03125 1.34375 -1.140625 1.34375 -1.46875 C 1.34375 -1.75 1.140625 -1.90625 0.890625 -1.90625 C 0.703125 -1.90625 0.453125 -1.796875 0.453125 -1.4375 C 0.453125 -0.625 1.140625 0.203125 2.140625 0.203125 C 3.21875 0.203125 4.140625 -0.6875 4.140625 -1.796875 C 4.140625 -2.875 3.375 -3.765625 2.390625 -3.765625 C 1.96875 -3.765625 1.53125 -3.625 1.203125 -3.296875 L 1.203125 -5.0625 C 1.484375 -4.984375 1.765625 -4.9375 2.03125 -4.9375 C 3.140625 -4.9375 3.78125 -5.734375 3.78125 -5.859375 C 3.78125 -5.9375 3.734375 -5.96875 3.6875 -5.96875 C 3.671875 -5.96875 3.65625 -5.96875 3.5625 -5.921875 C 3.140625 -5.765625 2.734375 -5.6875 2.359375 -5.6875 C 1.96875 -5.6875 1.5625 -5.765625 1.15625 -5.921875 C 1.0625 -5.96875 1.046875 -5.96875 1.046875 -5.96875 C 0.9375 -5.96875 0.9375 -5.890625 0.9375 -5.734375 Z M 0.9375 -3.09375 "/>
</g>
<g id="glyph-2-2">
<path d="M 1.203125 -2.96875 C 1.203125 -3.890625 1.296875 -4.390625 1.546875 -4.859375 C 1.71875 -5.234375 2.15625 -5.75 2.828125 -5.75 C 3 -5.75 3.421875 -5.71875 3.625 -5.390625 C 3.296875 -5.390625 3.140625 -5.21875 3.140625 -4.984375 C 3.140625 -4.75 3.3125 -4.5625 3.5625 -4.5625 C 3.8125 -4.5625 3.984375 -4.734375 3.984375 -5 C 3.984375 -5.5 3.625 -5.96875 2.8125 -5.96875 C 1.65625 -5.96875 0.390625 -4.828125 0.390625 -2.828125 C 0.390625 -0.40625 1.484375 0.203125 2.328125 0.203125 C 3.3125 0.203125 4.21875 -0.640625 4.21875 -1.828125 C 4.21875 -2.953125 3.390625 -3.828125 2.375 -3.828125 C 1.84375 -3.828125 1.453125 -3.5 1.203125 -2.96875 Z M 2.3125 -0.046875 C 1.796875 -0.046875 1.5 -0.46875 1.40625 -0.734375 C 1.234375 -1.140625 1.21875 -1.890625 1.21875 -2.03125 C 1.21875 -2.625 1.5 -3.59375 2.359375 -3.59375 C 2.5 -3.59375 2.9375 -3.59375 3.234375 -3.046875 C 3.40625 -2.703125 3.40625 -2.265625 3.40625 -1.828125 C 3.40625 -1.40625 3.40625 -0.953125 3.234375 -0.625 C 2.953125 -0.109375 2.5625 -0.046875 2.3125 -0.046875 Z M 2.3125 -0.046875 "/>
</g>
<g id="glyph-2-3">
<path d="M 6.3125 -6.375 C 6.359375 -6.4375 6.390625 -6.46875 6.390625 -6.53125 C 6.390625 -6.65625 6.28125 -6.734375 6.203125 -6.734375 C 6.09375 -6.734375 6.046875 -6.671875 6 -6.59375 C 5.421875 -5.84375 4.671875 -5.734375 4.265625 -5.734375 C 3.390625 -5.734375 2.8125 -6.171875 2.5 -6.46875 C 2.265625 -6.6875 2.03125 -6.734375 1.859375 -6.734375 C 1.171875 -6.734375 0.515625 -5.984375 0.515625 -4.921875 C 0.515625 -3.828125 1.1875 -3.109375 1.859375 -3.109375 C 2.53125 -3.109375 3.0625 -3.90625 3.0625 -4.921875 C 3.0625 -5.046875 3.0625 -5.453125 2.890625 -5.890625 C 3.4375 -5.578125 3.953125 -5.515625 4.265625 -5.515625 C 4.65625 -5.515625 5.0625 -5.609375 5.4375 -5.8125 L 5.453125 -5.796875 L 1.359375 0.125 C 1.359375 0.140625 1.28125 0.234375 1.28125 0.3125 C 1.28125 0.421875 1.375 0.5 1.484375 0.5 C 1.578125 0.5 1.625 0.4375 1.671875 0.359375 Z M 1.890625 -3.34375 C 1.6875 -3.34375 1.109375 -3.453125 1.109375 -4.921875 C 1.109375 -6.390625 1.6875 -6.5 1.890625 -6.5 C 2.359375 -6.5 2.8125 -5.84375 2.8125 -4.921875 C 2.8125 -3.96875 2.34375 -3.34375 1.890625 -3.34375 Z M 7.15625 -1.296875 C 7.15625 -2.34375 6.609375 -3.109375 5.953125 -3.109375 C 5.265625 -3.109375 4.59375 -2.375 4.59375 -1.3125 C 4.59375 -0.21875 5.28125 0.5 5.953125 0.5 C 6.625 0.5 7.15625 -0.28125 7.15625 -1.296875 Z M 5.96875 0.28125 C 5.78125 0.28125 5.1875 0.15625 5.1875 -1.296875 C 5.1875 -2.78125 5.78125 -2.890625 5.96875 -2.890625 C 6.453125 -2.890625 6.90625 -2.21875 6.90625 -1.3125 C 6.90625 -0.359375 6.4375 0.28125 5.96875 0.28125 Z M 5.96875 0.28125 "/>
</g>
<g id="glyph-2-4">
<path d="M 6.328125 -2.046875 C 6.453125 -2.046875 6.640625 -2.046875 6.640625 -2.25 C 6.640625 -2.4375 6.46875 -2.4375 6.328125 -2.4375 L 3.78125 -2.4375 L 3.78125 -5 C 3.78125 -5.140625 3.78125 -5.3125 3.578125 -5.3125 C 3.390625 -5.3125 3.390625 -5.125 3.390625 -5 L 3.390625 -2.4375 L 0.828125 -2.4375 C 0.703125 -2.4375 0.515625 -2.4375 0.515625 -2.25 C 0.515625 -2.046875 0.6875 -2.046875 0.828125 -2.046875 L 3.390625 -2.046875 L 3.390625 0.515625 C 3.390625 0.65625 3.390625 0.828125 3.59375 0.828125 C 3.78125 0.828125 3.78125 0.640625 3.78125 0.515625 L 3.78125 -2.046875 Z M 6.328125 -2.046875 "/>
</g>
<g id="glyph-2-5">
<path d="M 2.71875 -5.734375 C 2.71875 -5.953125 2.71875 -5.96875 2.5 -5.96875 C 1.9375 -5.40625 1.109375 -5.40625 0.828125 -5.40625 L 0.828125 -5.125 C 1 -5.125 1.546875 -5.125 2.03125 -5.359375 L 2.03125 -0.71875 C 2.03125 -0.390625 2.015625 -0.28125 1.171875 -0.28125 L 0.890625 -0.28125 L 0.890625 0 C 1.203125 -0.03125 2.015625 -0.03125 2.375 -0.03125 C 2.75 -0.03125 3.546875 -0.03125 3.875 0 L 3.875 -0.28125 L 3.59375 -0.28125 C 2.75 -0.28125 2.71875 -0.390625 2.71875 -0.71875 Z M 2.71875 -5.734375 "/>
</g>
<g id="glyph-2-6">
<path d="M 2.734375 -3.15625 C 3.5625 -3.46875 3.96875 -4.125 3.96875 -4.75 C 3.96875 -5.4375 3.203125 -5.96875 2.265625 -5.96875 C 1.34375 -5.96875 0.640625 -5.4375 0.640625 -4.765625 C 0.640625 -4.46875 0.828125 -4.296875 1.09375 -4.296875 C 1.359375 -4.296875 1.546875 -4.484375 1.546875 -4.75 C 1.546875 -5.0625 1.328125 -5.1875 1.015625 -5.1875 C 1.25 -5.5625 1.796875 -5.75 2.25 -5.75 C 2.984375 -5.75 3.125 -5.15625 3.125 -4.734375 C 3.125 -4.46875 3.078125 -4.03125 2.859375 -3.6875 C 2.578125 -3.296875 2.265625 -3.28125 2 -3.25 C 1.78125 -3.234375 1.765625 -3.234375 1.6875 -3.234375 C 1.609375 -3.234375 1.53125 -3.21875 1.53125 -3.125 C 1.53125 -3 1.609375 -3 1.765625 -3 L 2.171875 -3 C 2.953125 -3 3.296875 -2.375 3.296875 -1.53125 C 3.296875 -0.375 2.6875 -0.046875 2.234375 -0.046875 C 2.0625 -0.046875 1.1875 -0.09375 0.796875 -0.765625 C 1.109375 -0.71875 1.359375 -0.9375 1.359375 -1.25 C 1.359375 -1.546875 1.140625 -1.734375 0.875 -1.734375 C 0.65625 -1.734375 0.390625 -1.59375 0.390625 -1.21875 C 0.390625 -0.421875 1.21875 0.203125 2.265625 0.203125 C 3.375 0.203125 4.21875 -0.609375 4.21875 -1.53125 C 4.21875 -2.3125 3.59375 -2.96875 2.734375 -3.15625 Z M 2.734375 -3.15625 "/>
</g>
<g id="glyph-2-7">
<path d="M 4.140625 -1.59375 L 3.890625 -1.59375 C 3.875 -1.46875 3.796875 -0.9375 3.6875 -0.796875 C 3.625 -0.71875 3.015625 -0.71875 2.828125 -0.71875 L 1.234375 -0.71875 L 2.125 -1.5625 C 3.59375 -2.828125 4.140625 -3.3125 4.140625 -4.21875 C 4.140625 -5.25 3.296875 -5.96875 2.1875 -5.96875 C 1.15625 -5.96875 0.453125 -5.15625 0.453125 -4.34375 C 0.453125 -3.890625 0.84375 -3.84375 0.921875 -3.84375 C 1.125 -3.84375 1.390625 -3.984375 1.390625 -4.3125 C 1.390625 -4.578125 1.203125 -4.78125 0.921875 -4.78125 C 0.875 -4.78125 0.859375 -4.78125 0.8125 -4.765625 C 1.03125 -5.40625 1.609375 -5.6875 2.09375 -5.6875 C 3 -5.6875 3.3125 -4.84375 3.3125 -4.21875 C 3.3125 -3.3125 2.625 -2.5625 2.203125 -2.09375 L 0.5625 -0.328125 C 0.453125 -0.21875 0.453125 -0.203125 0.453125 0 L 3.890625 0 Z M 4.140625 -1.59375 "/>
</g>
<g id="glyph-2-8">
<path d="M 3.40625 -2.828125 L 3.40625 -2.625 C 3.40625 -0.4375 2.40625 -0.046875 1.890625 -0.046875 C 1.6875 -0.046875 1.234375 -0.09375 1 -0.390625 L 1.03125 -0.390625 C 1.109375 -0.375 1.453125 -0.4375 1.453125 -0.796875 C 1.453125 -1.03125 1.296875 -1.203125 1.046875 -1.203125 C 0.796875 -1.203125 0.625 -1.046875 0.625 -0.78125 C 0.625 -0.1875 1.09375 0.203125 1.90625 0.203125 C 3.0625 0.203125 4.21875 -0.984375 4.21875 -2.953125 C 4.21875 -5.375 3.140625 -5.96875 2.328125 -5.96875 C 1.296875 -5.96875 0.390625 -5.140625 0.390625 -3.96875 C 0.390625 -2.828125 1.203125 -1.96875 2.21875 -1.96875 C 2.875 -1.96875 3.234375 -2.4375 3.40625 -2.828125 Z M 2.25 -2.1875 C 2.09375 -2.1875 1.65625 -2.1875 1.375 -2.75 C 1.203125 -3.078125 1.203125 -3.53125 1.203125 -3.953125 C 1.203125 -4.390625 1.203125 -4.828125 1.390625 -5.171875 C 1.65625 -5.625 2.015625 -5.75 2.328125 -5.75 C 2.9375 -5.75 3.1875 -5.125 3.21875 -5.046875 C 3.34375 -4.703125 3.375 -4.15625 3.375 -3.78125 C 3.375 -3.125 3.078125 -2.1875 2.25 -2.1875 Z M 2.25 -2.1875 "/>
</g>
<g id="glyph-2-9">
<path d="M 1.546875 -4.078125 C 1.28125 -4.25 1.0625 -4.484375 1.0625 -4.8125 C 1.0625 -5.40625 1.6875 -5.75 2.28125 -5.75 C 2.984375 -5.75 3.53125 -5.265625 3.53125 -4.640625 C 3.53125 -4.015625 3 -3.59375 2.640625 -3.390625 Z M 2.859375 -3.25 C 3.3125 -3.46875 3.96875 -3.90625 3.96875 -4.640625 C 3.96875 -5.484375 3.125 -5.96875 2.3125 -5.96875 C 1.375 -5.96875 0.640625 -5.296875 0.640625 -4.46875 C 0.640625 -4.140625 0.765625 -3.8125 0.984375 -3.546875 C 1.125 -3.375 1.1875 -3.34375 1.703125 -3.015625 C 0.921875 -2.640625 0.390625 -2.09375 0.390625 -1.359375 C 0.390625 -0.40625 1.328125 0.203125 2.296875 0.203125 C 3.34375 0.203125 4.21875 -0.53125 4.21875 -1.5 C 4.21875 -2.375 3.546875 -2.8125 3.328125 -2.953125 C 3.234375 -3.015625 2.96875 -3.1875 2.859375 -3.25 Z M 1.953125 -2.859375 L 3.078125 -2.15625 C 3.28125 -2.03125 3.734375 -1.734375 3.734375 -1.1875 C 3.734375 -0.484375 3.015625 -0.046875 2.3125 -0.046875 C 1.53125 -0.046875 0.875 -0.609375 0.875 -1.359375 C 0.875 -2 1.3125 -2.53125 1.953125 -2.859375 Z M 1.953125 -2.859375 "/>
</g>
<g id="glyph-2-10">
<path d="M 4.390625 -5.46875 C 4.46875 -5.5625 4.46875 -5.59375 4.46875 -5.78125 L 2.25 -5.78125 C 1.109375 -5.78125 1.078125 -5.890625 1.0625 -6.0625 L 0.8125 -6.0625 L 0.515625 -4.1875 L 0.765625 -4.1875 C 0.796875 -4.390625 0.875 -4.890625 0.984375 -5 C 1.046875 -5.0625 1.765625 -5.0625 1.890625 -5.0625 L 3.765625 -5.0625 L 2.90625 -3.890625 C 1.734375 -2.28125 1.625 -0.8125 1.625 -0.3125 C 1.625 -0.203125 1.625 0.203125 2.046875 0.203125 C 2.46875 0.203125 2.46875 -0.203125 2.46875 -0.3125 L 2.46875 -0.75 C 2.46875 -2.078125 2.65625 -3.109375 3.140625 -3.765625 Z M 4.390625 -5.46875 "/>
</g>
<g id="glyph-2-11">
<path d="M 0.265625 -1.765625 L 0.265625 -1.484375 L 2.703125 -1.484375 L 2.703125 -0.703125 C 2.703125 -0.375 2.6875 -0.28125 2.015625 -0.28125 L 1.8125 -0.28125 L 1.8125 0 C 2.375 -0.03125 3 -0.03125 3.0625 -0.03125 C 3.109375 -0.03125 3.765625 -0.03125 4.328125 0 L 4.328125 -0.28125 L 4.125 -0.28125 C 3.453125 -0.28125 3.421875 -0.375 3.421875 -0.703125 L 3.421875 -1.484375 L 4.34375 -1.484375 L 4.34375 -1.765625 L 3.421875 -1.765625 L 3.421875 -5.828125 C 3.421875 -6.015625 3.421875 -6.078125 3.25 -6.078125 C 3.140625 -6.078125 3.140625 -6.0625 3.0625 -5.9375 Z M 0.546875 -1.765625 L 2.765625 -5.078125 L 2.765625 -1.765625 Z M 0.546875 -1.765625 "/>
</g>
<g id="glyph-3-0">
<path d="M 1.765625 -0.484375 C 1.765625 -0.75 1.546875 -0.96875 1.28125 -0.96875 C 1 -0.96875 0.796875 -0.75 0.796875 -0.484375 C 0.796875 -0.21875 1 0 1.28125 0 C 1.546875 0 1.765625 -0.21875 1.765625 -0.484375 Z M 1.765625 -0.484375 "/>
</g>
<g id="glyph-4-0">
<path d="M 3.78125 -2.828125 L 6.3125 -2.828125 C 6.46875 -2.828125 6.640625 -2.828125 6.640625 -3.015625 C 6.640625 -3.203125 6.46875 -3.203125 6.3125 -3.203125 L 3.78125 -3.203125 L 3.78125 -5.734375 C 3.78125 -5.890625 3.78125 -6.09375 3.578125 -6.09375 C 3.390625 -6.09375 3.390625 -5.90625 3.390625 -5.78125 L 3.390625 -3.203125 L 0.84375 -3.203125 C 0.6875 -3.203125 0.515625 -3.203125 0.515625 -3.015625 C 0.515625 -2.828125 0.6875 -2.828125 0.84375 -2.828125 L 3.390625 -2.828125 L 3.390625 -0.328125 L 0.84375 -0.328125 C 0.6875 -0.328125 0.515625 -0.328125 0.515625 -0.140625 C 0.515625 0.046875 0.6875 0.046875 0.84375 0.046875 L 6.3125 0.046875 C 6.46875 0.046875 6.640625 0.046875 6.640625 -0.140625 C 6.640625 -0.328125 6.46875 -0.328125 6.3125 -0.328125 L 3.78125 -0.328125 Z M 3.78125 -2.828125 "/>
</g>
<g id="glyph-4-1">
<path d="M 6.046875 -2.046875 C 6.21875 -2.046875 6.390625 -2.046875 6.390625 -2.25 C 6.390625 -2.4375 6.203125 -2.4375 6.046875 -2.4375 L 1.109375 -2.4375 C 0.953125 -2.4375 0.765625 -2.4375 0.765625 -2.25 C 0.765625 -2.046875 0.9375 -2.046875 1.109375 -2.046875 Z M 6.046875 -2.046875 "/>
</g>
</g>
<clipPath id="clip-0">
<path clip-rule="nonzero" d="M 3 3.203125 L 242.761719 3.203125 L 242.761719 4 L 3 4 Z M 3 3.203125 "/>
</clipPath>
<clipPath id="clip-1">
<path clip-rule="nonzero" d="M 3 14 L 242.761719 14 L 242.761719 16 L 3 16 Z M 3 14 "/>
</clipPath>
<clipPath id="clip-2">
<path clip-rule="nonzero" d="M 200 26 L 242.761719 26 L 242.761719 27 L 200 27 Z M 200 26 "/>
</clipPath>
<clipPath id="clip-3">
<path clip-rule="nonzero" d="M 200 26 L 242.761719 26 L 242.761719 38 L 200 38 Z M 200 26 "/>
</clipPath>
<clipPath id="clip-4">
<path clip-rule="nonzero" d="M 200 37 L 242.761719 37 L 242.761719 39 L 200 39 Z M 200 37 "/>
</clipPath>
<clipPath id="clip-5">
<path clip-rule="nonzero" d="M 200 38 L 242.761719 38 L 242.761719 50 L 200 50 Z M 200 38 "/>
</clipPath>
<clipPath id="clip-6">
<path clip-rule="nonzero" d="M 3 49 L 242.761719 49 L 242.761719 50 L 3 50 Z M 3 49 "/>
</clipPath>
<clipPath id="clip-7">
<path clip-rule="nonzero" d="M 200 49 L 242.761719 49 L 242.761719 61 L 200 61 Z M 200 49 "/>
</clipPath>
<clipPath id="clip-8">
<path clip-rule="nonzero" d="M 200 60 L 242.761719 60 L 242.761719 61 L 200 61 Z M 200 60 "/>
</clipPath>
<clipPath id="clip-9">
<path clip-rule="nonzero" d="M 200 60 L 242.761719 60 L 242.761719 72 L 200 72 Z M 200 60 "/>
</clipPath>
<clipPath id="clip-10">
<path clip-rule="nonzero" d="M 200 71 L 242.761719 71 L 242.761719 73 L 200 73 Z M 200 71 "/>
</clipPath>
<clipPath id="clip-11">
<path clip-rule="nonzero" d="M 200 72 L 242.761719 72 L 242.761719 84 L 200 84 Z M 200 72 "/>
</clipPath>
<clipPath id="clip-12">
<path clip-rule="nonzero" d="M 3 83 L 242.761719 83 L 242.761719 84 L 3 84 Z M 3 83 "/>
</clipPath>
<clipPath id="clip-13">
<path clip-rule="nonzero" d="M 71 6 L 72 6 L 72 84 L 71 84 Z M 71 6 "/>
</clipPath>
<clipPath id="clip-14">
<path clip-rule="nonzero" d="M 121 6 L 123 6 L 123 84 L 121 84 Z M 121 6 "/>
</clipPath>
</defs>
<g clip-path="url(#clip-0)">
<path fill="none" stroke-width="0.797" stroke-linecap="butt" stroke-linejoin="miter" stroke="rgb(0%, 0%, 0%)" stroke-opacity="1" stroke-miterlimit="10" d="M 0 -0.0005625 L 240.84375 -0.0005625 " transform="matrix(1, 0, 0, -1, 3, 3.601)"/>
</g>
<g fill="rgb(0%, 0%, 0%)" fill-opacity="1">
<use xlink:href="#glyph-0-0" x="6.985" y="11.671"/>
</g>
<g fill="rgb(0%, 0%, 0%)" fill-opacity="1">
<use xlink:href="#glyph-0-1" x="14.794734" y="11.671"/>
<use xlink:href="#glyph-0-2" x="19.3138" y="11.671"/>
<use xlink:href="#glyph-0-3" x="22.649301" y="11.671"/>
<use xlink:href="#glyph-0-4" x="27.240098" y="11.671"/>
<use xlink:href="#glyph-0-1" x="29.607227" y="11.671"/>
<use xlink:href="#glyph-0-5" x="34.126293" y="11.671"/>
<use xlink:href="#glyph-0-6" x="38.223938" y="11.671"/>
</g>
<g fill="rgb(0%, 0%, 0%)" fill-opacity="1">
<use xlink:href="#glyph-0-7" x="75.694523" y="11.671"/>
<use xlink:href="#glyph-0-5" x="80.966766" y="11.671"/>
<use xlink:href="#glyph-0-8" x="85.064411" y="11.671"/>
<use xlink:href="#glyph-0-9" x="88.561307" y="11.671"/>
</g>
<g fill="rgb(0%, 0%, 0%)" fill-opacity="1">
<use xlink:href="#glyph-0-10" x="94.810888" y="11.671"/>
</g>
<g fill="rgb(0%, 0%, 0%)" fill-opacity="1">
<use xlink:href="#glyph-0-11" x="97.393211" y="11.671"/>
<use xlink:href="#glyph-0-7" x="103.535195" y="11.671"/>
<use xlink:href="#glyph-0-12" x="108.807438" y="11.671"/>
<use xlink:href="#glyph-0-8" x="111.703586" y="11.671"/>
<use xlink:href="#glyph-0-13" x="115.200482" y="11.671"/>
</g>
<g fill="rgb(0%, 0%, 0%)" fill-opacity="1">
<use xlink:href="#glyph-1-0" x="126.238" y="11.671"/>
</g>
<g fill="rgb(0%, 0%, 0%)" fill-opacity="1">
<use xlink:href="#glyph-1-1" x="130.81983" y="11.671"/>
<use xlink:href="#glyph-1-2" x="135.30303" y="11.671"/>
<use xlink:href="#glyph-1-1" x="137.562563" y="11.671"/>
<use xlink:href="#glyph-1-3" x="142.045763" y="11.671"/>
<use xlink:href="#glyph-1-4" x="146.564829" y="11.671"/>
</g>
<g fill="rgb(0%, 0%, 0%)" fill-opacity="1">
<use xlink:href="#glyph-0-14" x="159.072" y="11.671"/>
</g>
<g fill="rgb(0%, 0%, 0%)" fill-opacity="1">
<use xlink:href="#glyph-0-15" x="165.456077" y="11.671"/>
</g>
<g fill="rgb(0%, 0%, 0%)" fill-opacity="1">
<use xlink:href="#glyph-0-9" x="169.840646" y="11.671"/>
<use xlink:href="#glyph-0-2" x="173.848627" y="11.671"/>
<use xlink:href="#glyph-0-4" x="177.184128" y="11.671"/>
<use xlink:href="#glyph-0-5" x="179.551258" y="11.671"/>
<use xlink:href="#glyph-0-16" x="183.648902" y="11.671"/>
<use xlink:href="#glyph-0-17" x="188.266598" y="11.671"/>
<use xlink:href="#glyph-0-18" x="192.615302" y="11.671"/>
</g>
<g fill="rgb(0%, 0%, 0%)" fill-opacity="1">
<use xlink:href="#glyph-0-7" x="204.935136" y="11.671"/>
<use xlink:href="#glyph-0-2" x="210.207379" y="11.671"/>
<use xlink:href="#glyph-0-5" x="213.54288" y="11.671"/>
<use xlink:href="#glyph-0-19" x="217.640525" y="11.671"/>
<use xlink:href="#glyph-0-20" x="222.500314" y="11.671"/>
<use xlink:href="#glyph-0-21" x="226.337933" y="11.671"/>
<use xlink:href="#glyph-0-17" x="231.161856" y="11.671"/>
<use xlink:href="#glyph-0-18" x="235.51056" y="11.671"/>
</g>
<g clip-path="url(#clip-1)">
<path fill="none" stroke-width="0.498" stroke-linecap="butt" stroke-linejoin="miter" stroke="rgb(0%, 0%, 0%)" stroke-opacity="1" stroke-miterlimit="10" d="M 0 0.00096875 L 240.84375 0.00096875 " transform="matrix(1, 0, 0, -1, 3, 15.208)"/>
</g>
<g fill="rgb(0%, 0%, 0%)" fill-opacity="1">
<use xlink:href="#glyph-0-8" x="6.985" y="34.087"/>
<use xlink:href="#glyph-0-9" x="10.481896" y="34.087"/>
</g>
<g fill="rgb(0%, 0%, 0%)" fill-opacity="1">
<use xlink:href="#glyph-0-22" x="14.552642" y="34.087"/>
</g>
<g fill="rgb(0%, 0%, 0%)" fill-opacity="1">
<use xlink:href="#glyph-0-2" x="25.309" y="28.608"/>
</g>
<g fill="rgb(0%, 0%, 0%)" fill-opacity="1">
<use xlink:href="#glyph-0-9" x="28.57277" y="28.608"/>
<use xlink:href="#glyph-0-5" x="32.58075" y="28.608"/>
<use xlink:href="#glyph-0-6" x="36.678395" y="28.608"/>
</g>
<g fill="rgb(0%, 0%, 0%)" fill-opacity="1">
<use xlink:href="#glyph-0-20" x="46.108" y="23.128"/>
<use xlink:href="#glyph-0-1" x="49.945619" y="23.128"/>
<use xlink:href="#glyph-0-4" x="54.464685" y="23.128"/>
<use xlink:href="#glyph-0-6" x="56.831814" y="23.128"/>
</g>
<g fill="rgb(0%, 0%, 0%)" fill-opacity="1">
<use xlink:href="#glyph-2-0" x="79.117" y="23.128"/>
</g>
<g fill="rgb(0%, 0%, 0%)" fill-opacity="1">
<use xlink:href="#glyph-3-0" x="83.725" y="23.128"/>
</g>
<g fill="rgb(0%, 0%, 0%)" fill-opacity="1">
<use xlink:href="#glyph-2-1" x="86.285" y="23.128"/>
</g>
<g fill="rgb(0%, 0%, 0%)" fill-opacity="1">
<use xlink:href="#glyph-4-0" x="92.94" y="23.128"/>
</g>
<g fill="rgb(0%, 0%, 0%)" fill-opacity="1">
<use xlink:href="#glyph-2-2" x="102.156" y="23.128"/>
<use xlink:href="#glyph-2-3" x="106.763833" y="23.128"/>
</g>
<g fill="rgb(0%, 0%, 0%)" fill-opacity="1">
<use xlink:href="#glyph-2-0" x="132.528783" y="23.128"/>
<use xlink:href="#glyph-2-3" x="137.136616" y="23.128"/>
</g>
<g fill="rgb(0%, 0%, 0%)" fill-opacity="1">
<use xlink:href="#glyph-2-4" x="168.290373" y="23.128"/>
<use xlink:href="#glyph-2-5" x="175.458113" y="23.128"/>
<use xlink:href="#glyph-2-3" x="180.065946" y="23.128"/>
</g>
<g fill="rgb(0%, 0%, 0%)" fill-opacity="1">
<use xlink:href="#glyph-4-1" x="212.668" y="23.128"/>
</g>
<g fill="rgb(0%, 0%, 0%)" fill-opacity="1">
<use xlink:href="#glyph-2-6" x="219.836" y="23.128"/>
<use xlink:href="#glyph-2-3" x="224.443833" y="23.128"/>
</g>
<path fill="none" stroke-width="0.398" stroke-linecap="butt" stroke-linejoin="miter" stroke="rgb(0%, 0%, 0%)" stroke-opacity="1" stroke-miterlimit="10" d="M 0.001375 0.00171875 L 25.599031 0.00171875 " transform="matrix(1, 0, 0, -1, 46.108, 26.615)"/>
<path fill="none" stroke-width="0.398" stroke-linecap="butt" stroke-linejoin="miter" stroke="rgb(0%, 0%, 0%)" stroke-opacity="1" stroke-miterlimit="10" d="M 0.00103125 0.00171875 L 50.547906 0.00171875 " transform="matrix(1, 0, 0, -1, 71.706, 26.615)"/>
<path fill="none" stroke-width="0.398" stroke-linecap="butt" stroke-linejoin="miter" stroke="rgb(0%, 0%, 0%)" stroke-opacity="1" stroke-miterlimit="10" d="M 0.00090625 0.00171875 L 32.832937 0.00171875 " transform="matrix(1, 0, 0, -1, 122.253, 26.615)"/>
<path fill="none" stroke-width="0.398" stroke-linecap="butt" stroke-linejoin="miter" stroke="rgb(0%, 0%, 0%)" stroke-opacity="1" stroke-miterlimit="10" d="M -0.0010625 0.00171875 L 45.862219 0.00171875 " transform="matrix(1, 0, 0, -1, 155.087, 26.615)"/>
<g clip-path="url(#clip-2)">
<path fill="none" stroke-width="0.398" stroke-linecap="butt" stroke-linejoin="miter" stroke="rgb(0%, 0%, 0%)" stroke-opacity="1" stroke-miterlimit="10" d="M 0.00121875 0.00171875 L 42.89575 0.00171875 " transform="matrix(1, 0, 0, -1, 200.948, 26.615)"/>
</g>
<g fill="rgb(0%, 0%, 0%)" fill-opacity="1">
<use xlink:href="#glyph-0-23" x="46.108" y="34.486"/>
<use xlink:href="#glyph-0-5" x="52.805901" y="34.486"/>
<use xlink:href="#glyph-0-2" x="56.903546" y="34.486"/>
<use xlink:href="#glyph-0-24" x="60.239046" y="34.486"/>
</g>
<g fill="rgb(0%, 0%, 0%)" fill-opacity="1">
<use xlink:href="#glyph-2-7" x="79.117" y="34.486"/>
</g>
<g fill="rgb(0%, 0%, 0%)" fill-opacity="1">
<use xlink:href="#glyph-3-0" x="83.725" y="34.486"/>
</g>
<g fill="rgb(0%, 0%, 0%)" fill-opacity="1">
<use xlink:href="#glyph-2-1" x="86.285" y="34.486"/>
</g>
<g fill="rgb(0%, 0%, 0%)" fill-opacity="1">
<use xlink:href="#glyph-4-0" x="92.94" y="34.486"/>
</g>
<g fill="rgb(0%, 0%, 0%)" fill-opacity="1">
<use xlink:href="#glyph-2-5" x="102.156" y="34.486"/>
<use xlink:href="#glyph-2-3" x="106.763833" y="34.486"/>
</g>
<g fill="rgb(0%, 0%, 0%)" fill-opacity="1">
<use xlink:href="#glyph-2-4" x="128.942223" y="34.486"/>
<use xlink:href="#glyph-2-5" x="136.109964" y="34.486"/>
<use xlink:href="#glyph-2-3" x="140.717796" y="34.486"/>
</g>
<path fill-rule="nonzero" fill="rgb(98.353577%, 90.774536%, 90.885925%)" fill-opacity="1" d="M 155.085938 37.773438 L 200.949219 37.773438 L 200.949219 26.8125 L 155.085938 26.8125 Z M 155.085938 37.773438 "/>
<g fill="rgb(0%, 0%, 0%)" fill-opacity="1">
<use xlink:href="#glyph-4-1" x="165.986" y="34.486"/>
</g>
<g fill="rgb(0%, 0%, 0%)" fill-opacity="1">
<use xlink:href="#glyph-2-7" x="173.154" y="34.486"/>
<use xlink:href="#glyph-2-6" x="177.761833" y="34.486"/>
<use xlink:href="#glyph-2-3" x="182.369666" y="34.486"/>
</g>
<g clip-path="url(#clip-3)">
<path fill-rule="nonzero" fill="rgb(95.646667%, 75.622559%, 75.912476%)" fill-opacity="1" d="M 200.949219 37.773438 L 243.84375 37.773438 L 243.84375 26.8125 L 200.949219 26.8125 Z M 200.949219 37.773438 "/>
</g>
<g fill="rgb(0%, 0%, 0%)" fill-opacity="1">
<use xlink:href="#glyph-4-1" x="210.364" y="34.486"/>
</g>
<g fill="rgb(0%, 0%, 0%)" fill-opacity="1">
<use xlink:href="#glyph-2-2" x="217.532" y="34.486"/>
<use xlink:href="#glyph-2-7" x="222.139833" y="34.486"/>
<use xlink:href="#glyph-2-3" x="226.747666" y="34.486"/>
</g>
<path fill="none" stroke-width="0.398" stroke-linecap="butt" stroke-linejoin="miter" stroke="rgb(0%, 0%, 0%)" stroke-opacity="1" stroke-miterlimit="10" d="M -0.00040625 0.00034375 L 20.800375 0.00034375 " transform="matrix(1, 0, 0, -1, 25.309, 37.973)"/>
<path fill="none" stroke-width="0.398" stroke-linecap="butt" stroke-linejoin="miter" stroke="rgb(0%, 0%, 0%)" stroke-opacity="1" stroke-miterlimit="10" d="M 0.001375 0.00034375 L 25.599031 0.00034375 " transform="matrix(1, 0, 0, -1, 46.108, 37.973)"/>
<path fill="none" stroke-width="0.398" stroke-linecap="butt" stroke-linejoin="miter" stroke="rgb(0%, 0%, 0%)" stroke-opacity="1" stroke-miterlimit="10" d="M 0.00103125 0.00034375 L 50.547906 0.00034375 " transform="matrix(1, 0, 0, -1, 71.706, 37.973)"/>
<path fill="none" stroke-width="0.398" stroke-linecap="butt" stroke-linejoin="miter" stroke="rgb(0%, 0%, 0%)" stroke-opacity="1" stroke-miterlimit="10" d="M 0.00090625 0.00034375 L 32.832937 0.00034375 " transform="matrix(1, 0, 0, -1, 122.253, 37.973)"/>
<path fill="none" stroke-width="0.398" stroke-linecap="butt" stroke-linejoin="miter" stroke="rgb(0%, 0%, 0%)" stroke-opacity="1" stroke-miterlimit="10" d="M -0.0010625 0.00034375 L 45.862219 0.00034375 " transform="matrix(1, 0, 0, -1, 155.087, 37.973)"/>
<g clip-path="url(#clip-4)">
<path fill="none" stroke-width="0.398" stroke-linecap="butt" stroke-linejoin="miter" stroke="rgb(0%, 0%, 0%)" stroke-opacity="1" stroke-miterlimit="10" d="M 0.00121875 0.00034375 L 42.89575 0.00034375 " transform="matrix(1, 0, 0, -1, 200.948, 37.973)"/>
</g>
<g fill="rgb(0%, 0%, 0%)" fill-opacity="1">
<use xlink:href="#glyph-0-23" x="25.309" y="45.843"/>
<use xlink:href="#glyph-0-2" x="32.006901" y="45.843"/>
<use xlink:href="#glyph-0-25" x="35.342402" y="45.843"/>
<use xlink:href="#glyph-0-26" x="37.772296" y="45.843"/>
<use xlink:href="#glyph-0-9" x="40.605678" y="45.843"/>
</g>
<g fill="rgb(0%, 0%, 0%)" fill-opacity="1">
<use xlink:href="#glyph-2-0" x="79.117" y="45.843"/>
</g>
<g fill="rgb(0%, 0%, 0%)" fill-opacity="1">
<use xlink:href="#glyph-3-0" x="83.725" y="45.843"/>
</g>
<g fill="rgb(0%, 0%, 0%)" fill-opacity="1">
<use xlink:href="#glyph-2-8" x="86.285" y="45.843"/>
</g>
<g fill="rgb(0%, 0%, 0%)" fill-opacity="1">
<use xlink:href="#glyph-4-0" x="92.94" y="45.843"/>
</g>
<g fill="rgb(0%, 0%, 0%)" fill-opacity="1">
<use xlink:href="#glyph-2-6" x="102.156" y="45.843"/>
<use xlink:href="#glyph-2-3" x="106.763833" y="45.843"/>
</g>
<g fill="rgb(0%, 0%, 0%)" fill-opacity="1">
<use xlink:href="#glyph-4-1" x="128.942" y="45.843"/>
</g>
<g fill="rgb(0%, 0%, 0%)" fill-opacity="1">
<use xlink:href="#glyph-2-7" x="136.11" y="45.843"/>
<use xlink:href="#glyph-2-3" x="140.717833" y="45.843"/>
</g>
<path fill-rule="nonzero" fill="rgb(98.939514%, 94.068909%, 94.139099%)" fill-opacity="1" d="M 155.085938 49.132812 L 200.949219 49.132812 L 200.949219 38.171875 L 155.085938 38.171875 Z M 155.085938 49.132812 "/>
<g fill="rgb(0%, 0%, 0%)" fill-opacity="1">
<use xlink:href="#glyph-4-1" x="165.986" y="45.843"/>
</g>
<g fill="rgb(0%, 0%, 0%)" fill-opacity="1">
<use xlink:href="#glyph-2-5" x="173.154" y="45.843"/>
<use xlink:href="#glyph-2-1" x="177.761833" y="45.843"/>
<use xlink:href="#glyph-2-3" x="182.369666" y="45.843"/>
</g>
<g clip-path="url(#clip-5)">
<path fill-rule="nonzero" fill="rgb(93.998718%, 66.398621%, 66.799927%)" fill-opacity="1" d="M 200.949219 49.132812 L 243.84375 49.132812 L 243.84375 38.171875 L 200.949219 38.171875 Z M 200.949219 49.132812 "/>
</g>
<g fill="rgb(0%, 0%, 0%)" fill-opacity="1">
<use xlink:href="#glyph-4-1" x="210.364" y="45.843"/>
</g>
<g fill="rgb(0%, 0%, 0%)" fill-opacity="1">
<use xlink:href="#glyph-2-9" x="217.532" y="45.843"/>
<use xlink:href="#glyph-2-1" x="222.139833" y="45.843"/>
<use xlink:href="#glyph-2-3" x="226.747666" y="45.843"/>
</g>
<g clip-path="url(#clip-6)">
<path fill="none" stroke-width="0.398" stroke-linecap="butt" stroke-linejoin="miter" stroke="rgb(0%, 0%, 0%)" stroke-opacity="1" stroke-miterlimit="10" d="M 0 0.001875 L 240.84375 0.001875 " transform="matrix(1, 0, 0, -1, 3, 49.33)"/>
</g>
<g fill="rgb(0%, 0%, 0%)" fill-opacity="1">
<use xlink:href="#glyph-0-2" x="6.985" y="68.159"/>
<use xlink:href="#glyph-0-5" x="10.320501" y="68.159"/>
<use xlink:href="#glyph-0-19" x="14.418146" y="68.159"/>
<use xlink:href="#glyph-0-6" x="19.277934" y="68.159"/>
</g>
<g fill="rgb(0%, 0%, 0%)" fill-opacity="1">
<use xlink:href="#glyph-0-2" x="25.309" y="62.68"/>
</g>
<g fill="rgb(0%, 0%, 0%)" fill-opacity="1">
<use xlink:href="#glyph-0-9" x="28.57277" y="62.68"/>
<use xlink:href="#glyph-0-5" x="32.58075" y="62.68"/>
<use xlink:href="#glyph-0-6" x="36.678395" y="62.68"/>
</g>
<g fill="rgb(0%, 0%, 0%)" fill-opacity="1">
<use xlink:href="#glyph-0-20" x="46.108" y="57.2"/>
<use xlink:href="#glyph-0-1" x="49.945619" y="57.2"/>
<use xlink:href="#glyph-0-4" x="54.464685" y="57.2"/>
<use xlink:href="#glyph-0-6" x="56.831814" y="57.2"/>
</g>
<g fill="rgb(0%, 0%, 0%)" fill-opacity="1">
<use xlink:href="#glyph-2-0" x="76.814" y="57.2"/>
</g>
<g fill="rgb(0%, 0%, 0%)" fill-opacity="1">
<use xlink:href="#glyph-3-0" x="81.421" y="57.2"/>
</g>
<g fill="rgb(0%, 0%, 0%)" fill-opacity="1">
<use xlink:href="#glyph-2-0" x="83.981" y="57.2"/>
<use xlink:href="#glyph-2-6" x="88.588833" y="57.2"/>
</g>
<g fill="rgb(0%, 0%, 0%)" fill-opacity="1">
<use xlink:href="#glyph-4-0" x="95.244" y="57.2"/>
</g>
<g fill="rgb(0%, 0%, 0%)" fill-opacity="1">
<use xlink:href="#glyph-2-7" x="104.46" y="57.2"/>
<use xlink:href="#glyph-2-3" x="109.067833" y="57.2"/>
</g>
<path fill-rule="nonzero" fill="rgb(99.882507%, 99.34082%, 99.346924%)" fill-opacity="1" d="M 122.253906 60.488281 L 155.085938 60.488281 L 155.085938 49.527344 L 122.253906 49.527344 Z M 122.253906 60.488281 "/>
<g fill="rgb(0%, 0%, 0%)" fill-opacity="1">
<use xlink:href="#glyph-4-1" x="128.942" y="57.2"/>
</g>
<g fill="rgb(0%, 0%, 0%)" fill-opacity="1">
<use xlink:href="#glyph-2-7" x="136.11" y="57.2"/>
<use xlink:href="#glyph-2-3" x="140.717833" y="57.2"/>
</g>
<g fill="rgb(0%, 0%, 0%)" fill-opacity="1">
<use xlink:href="#glyph-2-0" x="171.87159" y="57.2"/>
<use xlink:href="#glyph-2-3" x="176.479423" y="57.2"/>
</g>
<g clip-path="url(#clip-7)">
<path fill-rule="nonzero" fill="rgb(98.823547%, 93.409729%, 93.489075%)" fill-opacity="1" d="M 200.949219 60.488281 L 243.84375 60.488281 L 243.84375 49.527344 L 200.949219 49.527344 Z M 200.949219 60.488281 "/>
</g>
<g fill="rgb(0%, 0%, 0%)" fill-opacity="1">
<use xlink:href="#glyph-4-1" x="210.364" y="57.2"/>
</g>
<g fill="rgb(0%, 0%, 0%)" fill-opacity="1">
<use xlink:href="#glyph-2-5" x="217.532" y="57.2"/>
<use xlink:href="#glyph-2-10" x="222.139833" y="57.2"/>
<use xlink:href="#glyph-2-3" x="226.747666" y="57.2"/>
</g>
<path fill="none" stroke-width="0.398" stroke-linecap="butt" stroke-linejoin="miter" stroke="rgb(0%, 0%, 0%)" stroke-opacity="1" stroke-miterlimit="10" d="M 0.001375 -0.0005 L 25.599031 -0.0005 " transform="matrix(1, 0, 0, -1, 46.108, 60.687)"/>
<path fill="none" stroke-width="0.398" stroke-linecap="butt" stroke-linejoin="miter" stroke="rgb(0%, 0%, 0%)" stroke-opacity="1" stroke-miterlimit="10" d="M 0.00103125 -0.0005 L 50.547906 -0.0005 " transform="matrix(1, 0, 0, -1, 71.706, 60.687)"/>
<path fill="none" stroke-width="0.398" stroke-linecap="butt" stroke-linejoin="miter" stroke="rgb(0%, 0%, 0%)" stroke-opacity="1" stroke-miterlimit="10" d="M 0.00090625 -0.0005 L 32.832937 -0.0005 " transform="matrix(1, 0, 0, -1, 122.253, 60.687)"/>
<path fill="none" stroke-width="0.398" stroke-linecap="butt" stroke-linejoin="miter" stroke="rgb(0%, 0%, 0%)" stroke-opacity="1" stroke-miterlimit="10" d="M -0.0010625 -0.0005 L 45.862219 -0.0005 " transform="matrix(1, 0, 0, -1, 155.087, 60.687)"/>
<g clip-path="url(#clip-8)">
<path fill="none" stroke-width="0.398" stroke-linecap="butt" stroke-linejoin="miter" stroke="rgb(0%, 0%, 0%)" stroke-opacity="1" stroke-miterlimit="10" d="M 0.00121875 -0.0005 L 42.89575 -0.0005 " transform="matrix(1, 0, 0, -1, 200.948, 60.687)"/>
</g>
<g fill="rgb(0%, 0%, 0%)" fill-opacity="1">
<use xlink:href="#glyph-0-23" x="46.108" y="68.558"/>
<use xlink:href="#glyph-0-5" x="52.805901" y="68.558"/>
<use xlink:href="#glyph-0-2" x="56.903546" y="68.558"/>
<use xlink:href="#glyph-0-24" x="60.239046" y="68.558"/>
</g>
<g fill="rgb(0%, 0%, 0%)" fill-opacity="1">
<use xlink:href="#glyph-2-7" x="79.117" y="68.558"/>
</g>
<g fill="rgb(0%, 0%, 0%)" fill-opacity="1">
<use xlink:href="#glyph-3-0" x="83.725" y="68.558"/>
</g>
<g fill="rgb(0%, 0%, 0%)" fill-opacity="1">
<use xlink:href="#glyph-2-6" x="86.285" y="68.558"/>
</g>
<g fill="rgb(0%, 0%, 0%)" fill-opacity="1">
<use xlink:href="#glyph-4-0" x="92.94" y="68.558"/>
</g>
<g fill="rgb(0%, 0%, 0%)" fill-opacity="1">
<use xlink:href="#glyph-2-5" x="102.156" y="68.558"/>
<use xlink:href="#glyph-2-3" x="106.763833" y="68.558"/>
</g>
<g fill="rgb(0%, 0%, 0%)" fill-opacity="1">
<use xlink:href="#glyph-2-0" x="132.528783" y="68.558"/>
<use xlink:href="#glyph-2-3" x="137.136616" y="68.558"/>
</g>
<path fill-rule="nonzero" fill="rgb(98.588562%, 92.092896%, 92.1875%)" fill-opacity="1" d="M 155.085938 71.847656 L 200.949219 71.847656 L 200.949219 60.886719 L 155.085938 60.886719 Z M 155.085938 71.847656 "/>
<g fill="rgb(0%, 0%, 0%)" fill-opacity="1">
<use xlink:href="#glyph-4-1" x="165.986" y="68.558"/>
</g>
<g fill="rgb(0%, 0%, 0%)" fill-opacity="1">
<use xlink:href="#glyph-2-5" x="173.154" y="68.558"/>
<use xlink:href="#glyph-2-8" x="177.761833" y="68.558"/>
<use xlink:href="#glyph-2-3" x="182.369666" y="68.558"/>
</g>
<g clip-path="url(#clip-9)">
<path fill-rule="nonzero" fill="rgb(93.409729%, 63.105774%, 63.543701%)" fill-opacity="1" d="M 200.949219 71.847656 L 243.84375 71.847656 L 243.84375 60.886719 L 200.949219 60.886719 Z M 200.949219 71.847656 "/>
</g>
<g fill="rgb(0%, 0%, 0%)" fill-opacity="1">
<use xlink:href="#glyph-4-1" x="210.364" y="68.558"/>
</g>
<g fill="rgb(0%, 0%, 0%)" fill-opacity="1">
<use xlink:href="#glyph-2-8" x="217.532" y="68.558"/>
<use xlink:href="#glyph-2-6" x="222.139833" y="68.558"/>
<use xlink:href="#glyph-2-3" x="226.747666" y="68.558"/>
</g>
<path fill="none" stroke-width="0.398" stroke-linecap="butt" stroke-linejoin="miter" stroke="rgb(0%, 0%, 0%)" stroke-opacity="1" stroke-miterlimit="10" d="M -0.00040625 -0.001875 L 20.800375 -0.001875 " transform="matrix(1, 0, 0, -1, 25.309, 72.045)"/>
<path fill="none" stroke-width="0.398" stroke-linecap="butt" stroke-linejoin="miter" stroke="rgb(0%, 0%, 0%)" stroke-opacity="1" stroke-miterlimit="10" d="M 0.001375 -0.001875 L 25.599031 -0.001875 " transform="matrix(1, 0, 0, -1, 46.108, 72.045)"/>
<path fill="none" stroke-width="0.398" stroke-linecap="butt" stroke-linejoin="miter" stroke="rgb(0%, 0%, 0%)" stroke-opacity="1" stroke-miterlimit="10" d="M 0.00103125 -0.001875 L 50.547906 -0.001875 " transform="matrix(1, 0, 0, -1, 71.706, 72.045)"/>
<path fill="none" stroke-width="0.398" stroke-linecap="butt" stroke-linejoin="miter" stroke="rgb(0%, 0%, 0%)" stroke-opacity="1" stroke-miterlimit="10" d="M 0.00090625 -0.001875 L 32.832937 -0.001875 " transform="matrix(1, 0, 0, -1, 122.253, 72.045)"/>
<path fill="none" stroke-width="0.398" stroke-linecap="butt" stroke-linejoin="miter" stroke="rgb(0%, 0%, 0%)" stroke-opacity="1" stroke-miterlimit="10" d="M -0.0010625 -0.001875 L 45.862219 -0.001875 " transform="matrix(1, 0, 0, -1, 155.087, 72.045)"/>
<g clip-path="url(#clip-10)">
<path fill="none" stroke-width="0.398" stroke-linecap="butt" stroke-linejoin="miter" stroke="rgb(0%, 0%, 0%)" stroke-opacity="1" stroke-miterlimit="10" d="M 0.00121875 -0.001875 L 42.89575 -0.001875 " transform="matrix(1, 0, 0, -1, 200.948, 72.045)"/>
</g>
<g fill="rgb(0%, 0%, 0%)" fill-opacity="1">
<use xlink:href="#glyph-0-23" x="25.309" y="79.915"/>
<use xlink:href="#glyph-0-2" x="32.006901" y="79.915"/>
<use xlink:href="#glyph-0-25" x="35.342402" y="79.915"/>
<use xlink:href="#glyph-0-26" x="37.772296" y="79.915"/>
<use xlink:href="#glyph-0-9" x="40.605678" y="79.915"/>
</g>
<g fill="rgb(0%, 0%, 0%)" fill-opacity="1">
<use xlink:href="#glyph-2-0" x="79.117" y="79.915"/>
</g>
<g fill="rgb(0%, 0%, 0%)" fill-opacity="1">
<use xlink:href="#glyph-3-0" x="83.725" y="79.915"/>
</g>
<g fill="rgb(0%, 0%, 0%)" fill-opacity="1">
<use xlink:href="#glyph-2-9" x="86.285" y="79.915"/>
</g>
<g fill="rgb(0%, 0%, 0%)" fill-opacity="1">
<use xlink:href="#glyph-4-0" x="92.94" y="79.915"/>
</g>
<g fill="rgb(0%, 0%, 0%)" fill-opacity="1">
<use xlink:href="#glyph-2-5" x="102.156" y="79.915"/>
<use xlink:href="#glyph-2-3" x="106.763833" y="79.915"/>
</g>
<g fill="rgb(0%, 0%, 0%)" fill-opacity="1">
<use xlink:href="#glyph-4-1" x="128.942" y="79.915"/>
</g>
<g fill="rgb(0%, 0%, 0%)" fill-opacity="1">
<use xlink:href="#glyph-2-5" x="136.11" y="79.915"/>
<use xlink:href="#glyph-2-3" x="140.717833" y="79.915"/>
</g>
<path fill-rule="nonzero" fill="rgb(99.1745%, 95.388794%, 95.443726%)" fill-opacity="1" d="M 155.085938 83.203125 L 200.949219 83.203125 L 200.949219 72.242188 L 155.085938 72.242188 Z M 155.085938 83.203125 "/>
<g fill="rgb(0%, 0%, 0%)" fill-opacity="1">
<use xlink:href="#glyph-4-1" x="165.986" y="79.915"/>
</g>
<g fill="rgb(0%, 0%, 0%)" fill-opacity="1">
<use xlink:href="#glyph-2-5" x="173.154" y="79.915"/>
<use xlink:href="#glyph-2-7" x="177.761833" y="79.915"/>
<use xlink:href="#glyph-2-3" x="182.369666" y="79.915"/>
</g>
<g clip-path="url(#clip-11)">
<path fill-rule="nonzero" fill="rgb(94.117737%, 67.059326%, 67.449951%)" fill-opacity="1" d="M 200.949219 83.203125 L 243.84375 83.203125 L 243.84375 72.242188 L 200.949219 72.242188 Z M 200.949219 83.203125 "/>
</g>
<g fill="rgb(0%, 0%, 0%)" fill-opacity="1">
<use xlink:href="#glyph-4-1" x="210.364" y="79.915"/>
</g>
<g fill="rgb(0%, 0%, 0%)" fill-opacity="1">
<use xlink:href="#glyph-2-9" x="217.532" y="79.915"/>
<use xlink:href="#glyph-2-11" x="222.139833" y="79.915"/>
<use xlink:href="#glyph-2-3" x="226.747666" y="79.915"/>
</g>
<g clip-path="url(#clip-12)">
<path fill="none" stroke-width="0.797" stroke-linecap="butt" stroke-linejoin="miter" stroke="rgb(0%, 0%, 0%)" stroke-opacity="1" stroke-miterlimit="10" d="M 0 -0.0005625 L 240.84375 -0.0005625 " transform="matrix(1, 0, 0, -1, 3, 83.601)"/>
</g>
<g clip-path="url(#clip-13)">
<path fill="none" stroke-width="0.398" stroke-linecap="butt" stroke-linejoin="miter" stroke="rgb(0%, 0%, 0%)" stroke-opacity="1" stroke-miterlimit="10" d="M 0.0008125 0 L 0.0008125 77.109375 " transform="matrix(1, 0, 0, -1, 71.507, 84)"/>
</g>
<g clip-path="url(#clip-14)">
<path fill="none" stroke-width="0.398" stroke-linecap="butt" stroke-linejoin="miter" stroke="rgb(0%, 0%, 0%)" stroke-opacity="1" stroke-miterlimit="10" d="M 0.0016875 0 L 0.0016875 77.109375 " transform="matrix(1, 0, 0, -1, 122.053, 84)"/>
</g>
</svg>
